<?xml version="1.0" encoding="UTF-8" standalone="no"?>
<!DOCTYPE svg PUBLIC "-//W3C//DTD SVG 1.1//EN"
 "http://www.w3.org/Graphics/SVG/1.1/DTD/svg11.dtd">
<!-- Generated by graphviz version 2.28.0 (20120228.1928)
 -->
<!-- Title: _anonymous_0 Pages: 1 -->
<svg width="338pt" height="404pt"
 viewBox="0.00 0.00 338.00 404.00" xmlns="http://www.w3.org/2000/svg" xmlns:xlink="http://www.w3.org/1999/xlink">
<g id="graph1" class="graph" transform="scale(1 1) rotate(0) translate(4 400)">
<title>_anonymous_0</title>
<polygon fill="white" stroke="white" points="-4,5 -4,-400 335,-400 335,5 -4,5"/>
<!-- TNFa -->
<g id="node2" class="node"><title>TNFa</title>
<polygon fill="#9acd32" stroke="black" stroke-width="2" points="252.5,-396 195.5,-396 195.5,-360 252.5,-360 252.5,-396"/>
<text text-anchor="middle" x="224" y="-374.3" font-family="bold" font-size="14.00">TNFa</text>
</g>
<!-- TRAF6 -->
<g id="node16" class="node"><title>TRAF6</title>
<polygon fill="none" stroke="black" stroke-width="2" stroke-dasharray="5,2" points="174,-180 104,-180 104,-144 174,-144 174,-180"/>
<text text-anchor="middle" x="139" y="-158.3" font-family="bold" font-size="14.00">TRAF6</text>
</g>
<!-- TNFa&#45;&gt;TRAF6 -->
<g id="edge30" class="edge"><title>TNFa&#45;&gt;TRAF6</title>
<path fill="none" stroke="black" d="M214.404,-359.613C208.955,-349.4 202.205,-336.15 197,-324 176.962,-277.227 176.428,-263.807 159,-216 155.853,-207.366 152.338,-197.975 149.144,-189.528"/>
<polygon fill="black" stroke="black" points="152.405,-188.256 145.583,-180.149 145.861,-190.741 152.405,-188.256"/>
</g>
<!-- PI3K -->
<g id="node22" class="node"><title>PI3K</title>
<polygon fill="orangered" stroke="black" stroke-width="2" points="261.5,-324 206.5,-324 206.5,-288 261.5,-288 261.5,-324"/>
<text text-anchor="middle" x="234" y="-302.3" font-family="bold" font-size="14.00">PI3K</text>
</g>
<!-- TNFa&#45;&gt;PI3K -->
<g id="edge32" class="edge"><title>TNFa&#45;&gt;PI3K</title>
<path fill="none" stroke="black" d="M226.472,-359.697C227.574,-351.983 228.898,-342.712 230.127,-334.112"/>
<polygon fill="black" stroke="black" points="233.607,-334.499 231.557,-324.104 226.677,-333.509 233.607,-334.499"/>
</g>
<!-- EGF -->
<g id="node3" class="node"><title>EGF</title>
<polygon fill="#9acd32" stroke="black" stroke-width="2" points="168,-396 114,-396 114,-360 168,-360 168,-396"/>
<text text-anchor="middle" x="141" y="-374.3" font-family="bold" font-size="14.00">EGF</text>
</g>
<!-- EGF&#45;&gt;TNFa -->
<!-- EGF&#45;&gt;PI3K -->
<g id="edge40" class="edge"><title>EGF&#45;&gt;PI3K</title>
<path fill="none" stroke="black" d="M163.989,-359.697C175.814,-350.796 190.392,-339.823 203.179,-330.199"/>
<polygon fill="black" stroke="black" points="205.391,-332.915 211.276,-324.104 201.181,-327.322 205.391,-332.915"/>
</g>
<!-- Ras -->
<g id="node34" class="node"><title>Ras</title>
<polygon fill="none" stroke="black" stroke-width="2" stroke-dasharray="5,2" points="150,-324 96,-324 96,-288 150,-288 150,-324"/>
<text text-anchor="middle" x="123" y="-302.3" font-family="bold" font-size="14.00">Ras</text>
</g>
<!-- EGF&#45;&gt;Ras -->
<g id="edge38" class="edge"><title>EGF&#45;&gt;Ras</title>
<path fill="none" stroke="black" d="M136.551,-359.697C134.545,-351.898 132.131,-342.509 129.899,-333.829"/>
<polygon fill="black" stroke="black" points="133.278,-332.918 127.398,-324.104 126.499,-334.661 133.278,-332.918"/>
</g>
<!-- NFkB -->
<g id="node6" class="node"><title>NFkB</title>
<polygon fill="lightblue" stroke="black" stroke-width="2" points="220.25,-36 159.75,-36 159.75,-0 220.25,-0 220.25,-36"/>
<text text-anchor="middle" x="190" y="-14.3" font-family="bold" font-size="14.00">NFkB</text>
</g>
<!-- p90RSK -->
<g id="node7" class="node"><title>p90RSK</title>
<polygon fill="lightblue" stroke="black" stroke-width="2" points="329.25,-36 248.75,-36 248.75,-0 329.25,-0 329.25,-36"/>
<text text-anchor="middle" x="289" y="-14.3" font-family="bold" font-size="14.00">p90RSK</text>
</g>
<!-- NFkB&#45;&gt;p90RSK -->
<!-- Hsp27 -->
<g id="node9" class="node"><title>Hsp27</title>
<polygon fill="lightblue" stroke="black" stroke-width="2" points="141.25,-36 72.75,-36 72.75,-0 141.25,-0 141.25,-36"/>
<text text-anchor="middle" x="107" y="-14.3" font-family="bold" font-size="14.00">Hsp27</text>
</g>
<!-- Hsp27&#45;&gt;NFkB -->
<!-- cJun -->
<g id="node11" class="node"><title>cJun</title>
<polygon fill="lightblue" stroke="black" stroke-width="2" points="54,-36 0,-36 0,-0 54,-0 54,-36"/>
<text text-anchor="middle" x="27" y="-14.3" font-family="bold" font-size="14.00">cJun</text>
</g>
<!-- cJun&#45;&gt;Hsp27 -->
<!-- Raf -->
<g id="node13" class="node"><title>Raf</title>
<polygon fill="orangered" stroke="black" stroke-width="2" points="150,-252 96,-252 96,-216 150,-216 150,-252"/>
<text text-anchor="middle" x="123" y="-230.3" font-family="bold" font-size="14.00">Raf</text>
</g>
<!-- Mek -->
<g id="node14" class="node"><title>Mek</title>
<polygon fill="white" stroke="black" stroke-width="2" points="261,-180 207,-180 207,-144 261,-144 261,-180"/>
<text text-anchor="middle" x="234" y="-158.3" font-family="bold" font-size="14.00">Mek</text>
</g>
<!-- Raf&#45;&gt;Mek -->
<g id="edge12" class="edge"><title>Raf&#45;&gt;Mek</title>
<path fill="none" stroke="black" d="M150.154,-215.876C164.533,-206.808 182.381,-195.552 197.91,-185.759"/>
<polygon fill="black" stroke="black" points="200.15,-188.484 206.742,-180.19 196.416,-182.564 200.15,-188.484"/>
</g>
<!-- Mek&#45;&gt;p90RSK -->
<g id="edge24" class="edge"><title>Mek&#45;&gt;p90RSK</title>
<path fill="none" stroke="black" d="M248.165,-143.851C255.69,-133.93 264.497,-120.89 270,-108 278.413,-88.2932 283.245,-64.4881 285.928,-46.4579"/>
<polygon fill="black" stroke="black" points="289.427,-46.7052 287.303,-36.3255 282.49,-45.7643 289.427,-46.7052"/>
</g>
<!-- Erk -->
<g id="node25" class="node"><title>Erk</title>
<polygon fill="lightblue" stroke="black" stroke-width="2" points="261,-108 207,-108 207,-72 261,-72 261,-108"/>
<text text-anchor="middle" x="234" y="-86.3" font-family="bold" font-size="14.00">Erk</text>
</g>
<!-- Mek&#45;&gt;Erk -->
<g id="edge22" class="edge"><title>Mek&#45;&gt;Erk</title>
<path fill="none" stroke="black" d="M234,-143.697C234,-135.983 234,-126.712 234,-118.112"/>
<polygon fill="black" stroke="black" points="237.5,-118.104 234,-108.104 230.5,-118.104 237.5,-118.104"/>
</g>
<!-- TRAF6&#45;&gt;NFkB -->
<g id="edge18" class="edge"><title>TRAF6&#45;&gt;NFkB</title>
<path fill="none" stroke="black" d="M146.037,-143.901C150.228,-133.56 155.574,-120.081 160,-108 167.596,-87.2664 175.551,-63.5635 181.359,-45.8348"/>
<polygon fill="black" stroke="black" points="184.743,-46.7466 184.512,-36.1543 178.087,-44.5788 184.743,-46.7466"/>
</g>
<!-- p38 -->
<g id="node17" class="node"><title>p38</title>
<polygon fill="none" stroke="black" stroke-width="2" stroke-dasharray="5,2" points="79,-108 25,-108 25,-72 79,-72 79,-108"/>
<text text-anchor="middle" x="52" y="-86.3" font-family="bold" font-size="14.00">p38</text>
</g>
<!-- TRAF6&#45;&gt;p38 -->
<g id="edge14" class="edge"><title>TRAF6&#45;&gt;p38</title>
<path fill="none" stroke="black" d="M117.494,-143.697C106.537,-134.881 93.0541,-124.032 81.1751,-114.474"/>
<polygon fill="black" stroke="black" points="83.2435,-111.646 73.2582,-108.104 78.8554,-117.1 83.2435,-111.646"/>
</g>
<!-- Jnk -->
<g id="node19" class="node"><title>Jnk</title>
<polygon fill="lightblue" stroke="black" stroke-width="2" points="151,-108 97,-108 97,-72 151,-72 151,-108"/>
<text text-anchor="middle" x="124" y="-86.3" font-family="bold" font-size="14.00">Jnk</text>
</g>
<!-- TRAF6&#45;&gt;Jnk -->
<g id="edge16" class="edge"><title>TRAF6&#45;&gt;Jnk</title>
<path fill="none" stroke="black" d="M135.292,-143.697C133.639,-135.983 131.653,-126.712 129.81,-118.112"/>
<polygon fill="black" stroke="black" points="133.183,-117.149 127.665,-108.104 126.338,-118.616 133.183,-117.149"/>
</g>
<!-- p38&#45;&gt;Hsp27 -->
<g id="edge28" class="edge"><title>p38&#45;&gt;Hsp27</title>
<path fill="none" stroke="black" d="M65.5955,-71.6966C72.1227,-63.3893 80.068,-53.2771 87.2466,-44.1407"/>
<polygon fill="black" stroke="black" points="90.1347,-46.1299 93.5609,-36.1043 84.6305,-41.8051 90.1347,-46.1299"/>
</g>
<!-- Jnk&#45;&gt;cJun -->
<g id="edge34" class="edge"><title>Jnk&#45;&gt;cJun</title>
<path fill="none" stroke="black" d="M100.022,-71.6966C87.6887,-62.796 72.4836,-51.8232 59.147,-42.1989"/>
<polygon fill="black" stroke="black" points="60.8589,-39.1181 50.7017,-36.1043 56.7626,-44.7944 60.8589,-39.1181"/>
</g>
<!-- Akt -->
<g id="node23" class="node"><title>Akt</title>
<polygon fill="lightblue" stroke="black" stroke-width="2" points="261,-252 207,-252 207,-216 261,-216 261,-252"/>
<text text-anchor="middle" x="234" y="-230.3" font-family="bold" font-size="14.00">Akt</text>
</g>
<!-- PI3K&#45;&gt;Akt -->
<g id="edge20" class="edge"><title>PI3K&#45;&gt;Akt</title>
<path fill="none" stroke="black" d="M234,-287.697C234,-279.983 234,-270.712 234,-262.112"/>
<polygon fill="black" stroke="black" points="237.5,-262.104 234,-252.104 230.5,-262.104 237.5,-262.104"/>
</g>
<!-- Akt&#45;&gt;Mek -->
<g id="edge26" class="edge"><title>Akt&#45;&gt;Mek</title>
<path fill="none" stroke="red" d="M234,-215.697C234,-206.457 234,-194.984 234,-185.105"/>
<polygon fill="red" stroke="red" points="229,-181.104 239,-181.104 239,-183.104 229,-183.104 229,-181.104"/>
<polyline fill="none" stroke="red" points="234,-180.104 234,-185.104 "/>
</g>
<!-- Erk&#45;&gt;Hsp27 -->
<g id="edge36" class="edge"><title>Erk&#45;&gt;Hsp27</title>
<path fill="none" stroke="black" d="M206.755,-73.9832C189.389,-64.4115 166.583,-51.8411 147.161,-41.1359"/>
<polygon fill="black" stroke="black" points="148.67,-37.9713 138.223,-36.2094 145.291,-44.1018 148.67,-37.9713"/>
</g>
<!-- Ras&#45;&gt;Raf -->
<g id="edge42" class="edge"><title>Ras&#45;&gt;Raf</title>
<path fill="none" stroke="black" d="M123,-287.697C123,-279.983 123,-270.712 123,-262.112"/>
<polygon fill="black" stroke="black" points="126.5,-262.104 123,-252.104 119.5,-262.104 126.5,-262.104"/>
</g>
</g>
</svg>
