<?xml version="1.0" encoding="UTF-8" standalone="no"?>
<!DOCTYPE svg PUBLIC "-//W3C//DTD SVG 1.1//EN"
 "http://www.w3.org/Graphics/SVG/1.1/DTD/svg11.dtd">
<!-- Generated by graphviz version 2.26.3 (20100126.1600)
 -->
<!-- Title: foo Pages: 1 -->
<svg width="1440pt" height="1440pt"
 viewBox="0.00 0.00 1440.00 1440.00" xmlns="http://www.w3.org/2000/svg" xmlns:xlink="http://www.w3.org/1999/xlink">
<g id="graph1" class="graph" transform="scale(0.952381 0.952381) rotate(0) translate(36 1476)">
<title>foo</title>
<polygon fill="white" stroke="white" points="-36,37 -36,-1476 1477,-1476 1477,37 -36,37"/>
<!-- TRAF6 -->
<g id="node2" class="node"><title>TRAF6</title>
<ellipse fill="white" stroke="black" stroke-width="2" cx="1003.56" cy="-1121" rx="72" ry="36"/>
<text text-anchor="middle" x="1003.56" y="-1115.2" font-family="Helvetica,sans-Serif" font-size="22.00">TRAF6</text>
</g>
<!-- Jnk -->
<g id="node6" class="node"><title>Jnk</title>
<ellipse fill="lightblue" stroke="lightblue" stroke-width="2" cx="1293.56" cy="-854" rx="72" ry="36"/>
<text text-anchor="middle" x="1293.56" y="-848.2" font-family="Helvetica,sans-Serif" font-size="22.00">Jnk</text>
</g>
<!-- TRAF6&#45;&gt;Jnk -->
<g id="edge17" class="edge"><title>TRAF6&#45;&gt;Jnk:center</title>
<path fill="none" stroke="black" stroke-width="3" d="M1037.97,-1089.32C1089.07,-1042.28 1185.27,-953.701 1243.97,-899.657"/>
<polygon fill="black" stroke="black" points="1248.78,-904.747 1258.75,-886.051 1239.3,-894.448 1248.78,-904.747"/>
</g>
<!-- p38 -->
<g id="node7" class="node"><title>p38</title>
<ellipse fill="white" stroke="black" stroke-width="2" cx="885.564" cy="-854" rx="72" ry="36"/>
<text text-anchor="middle" x="885.564" y="-848.2" font-family="Helvetica,sans-Serif" font-size="22.00">p38</text>
</g>
<!-- TRAF6&#45;&gt;p38 -->
<g id="edge15" class="edge"><title>TRAF6&#45;&gt;p38:center</title>
<path fill="none" stroke="black" stroke-width="3" d="M988.016,-1085.82C967.939,-1040.39 932.798,-960.878 909.354,-907.83"/>
<polygon fill="black" stroke="black" points="915.633,-904.722 901.146,-889.258 902.828,-910.381 915.633,-904.722"/>
</g>
<!-- NFkB -->
<g id="node16" class="node"><title>NFkB</title>
<ellipse fill="lightblue" stroke="lightblue" stroke-width="2" cx="956.564" cy="-52" rx="72" ry="36"/>
<text text-anchor="middle" x="956.564" y="-46.2" font-family="Helvetica,sans-Serif" font-size="22.00">NFkB</text>
</g>
<!-- TRAF6&#45;&gt;NFkB -->
<g id="edge19" class="edge"><title>TRAF6&#45;&gt;NFkB:center</title>
<path fill="none" stroke="black" stroke-width="3" d="M1033.4,-1088.23C1058.24,-1057.46 1089.56,-1008.96 1089.56,-960 1089.56,-960 1089.56,-960 1089.56,-213 1089.56,-163.796 1052.18,-121.514 1017.06,-92.6425"/>
<polygon fill="black" stroke="black" points="1021.31,-87.0817 1001.22,-80.3444 1012.72,-98.1395 1021.31,-87.0817"/>
</g>
<!-- PI3K -->
<g id="node3" class="node"><title>PI3K</title>
<ellipse fill="orangered" stroke="orangered" stroke-width="2" cx="634.564" cy="-1121" rx="72" ry="36"/>
<text text-anchor="middle" x="634.564" y="-1115.2" font-family="Helvetica,sans-Serif" font-size="22.00">PI3K</text>
</g>
<!-- Akt -->
<g id="node9" class="node"><title>Akt</title>
<ellipse fill="lightblue" stroke="lightblue" stroke-width="2" cx="477.564" cy="-854" rx="72" ry="36"/>
<text text-anchor="middle" x="477.564" y="-848.2" font-family="Helvetica,sans-Serif" font-size="22.00">Akt</text>
</g>
<!-- PI3K&#45;&gt;Akt -->
<g id="edge25" class="edge"><title>PI3K&#45;&gt;Akt:center</title>
<path fill="none" stroke="black" stroke-width="3" d="M614.2,-1086.37C587.258,-1040.55 539.532,-959.386 508.221,-906.137"/>
<polygon fill="black" stroke="black" points="514.063,-902.263 497.892,-888.57 501.995,-909.359 514.063,-902.263"/>
</g>
<!-- PI3K&#45;&gt;NFkB -->
<g id="edge27" class="edge"><title>PI3K&#45;&gt;NFkB:center</title>
<path fill="none" stroke="black" stroke-width="3" d="M651.134,-1085.73C664.666,-1053.68 681.564,-1004.7 681.564,-960 681.564,-960 681.564,-960 681.564,-213 681.564,-125.278 787.064,-84.4576 867.374,-66.0921"/>
<polygon fill="black" stroke="black" points="869.058,-72.8907 887.17,-61.8918 866.152,-59.1956 869.058,-72.8907"/>
</g>
<!-- Ras -->
<g id="node4" class="node"><title>Ras</title>
<ellipse fill="white" stroke="black" stroke-width="2" cx="285.564" cy="-1121" rx="72" ry="36"/>
<text text-anchor="middle" x="285.564" y="-1115.2" font-family="Helvetica,sans-Serif" font-size="22.00">Ras</text>
</g>
<!-- Raf -->
<g id="node8" class="node"><title>Raf</title>
<ellipse fill="orangered" stroke="orangered" stroke-width="2" cx="146.564" cy="-854" rx="72" ry="36"/>
<text text-anchor="middle" x="146.564" y="-848.2" font-family="Helvetica,sans-Serif" font-size="22.00">Raf</text>
</g>
<!-- Ras&#45;&gt;Raf -->
<g id="edge29" class="edge"><title>Ras&#45;&gt;Raf:center</title>
<path fill="none" stroke="black" stroke-width="3" d="M267.392,-1086.09C243.614,-1040.42 201.727,-959.96 174.056,-906.809"/>
<polygon fill="black" stroke="black" points="180.184,-903.422 164.74,-888.914 167.766,-909.887 180.184,-903.422"/>
</g>
<!-- cJun -->
<g id="node17" class="node"><title>cJun</title>
<ellipse fill="lightblue" stroke="lightblue" stroke-width="2" cx="1293.56" cy="-52" rx="72" ry="36"/>
<text text-anchor="middle" x="1293.56" y="-46.2" font-family="Helvetica,sans-Serif" font-size="22.00">cJun</text>
</g>
<!-- Jnk&#45;&gt;cJun -->
<g id="edge21" class="edge"><title>Jnk&#45;&gt;cJun:center</title>
<path fill="none" stroke="black" stroke-width="3" d="M1293.56,-817.968C1293.56,-785.139 1293.56,-735.312 1293.56,-692 1293.56,-692 1293.56,-692 1293.56,-213 1293.56,-178.307 1293.56,-139.409 1293.56,-108.538"/>
<polygon fill="black" stroke="black" points="1300.56,-108.128 1293.56,-88.1278 1286.56,-108.128 1300.56,-108.128"/>
</g>
<!-- Hsp27 -->
<g id="node18" class="node"><title>Hsp27</title>
<ellipse fill="lightblue" stroke="lightblue" stroke-width="2" cx="611.564" cy="-52" rx="72" ry="36"/>
<text text-anchor="middle" x="611.564" y="-46.2" font-family="Helvetica,sans-Serif" font-size="22.00">Hsp27</text>
</g>
<!-- p38&#45;&gt;Hsp27 -->
<g id="edge23" class="edge"><title>p38&#45;&gt;Hsp27:center</title>
<path fill="none" stroke="black" stroke-width="3" d="M863.18,-819.52C844.724,-787.735 821.564,-738.57 821.564,-692 821.564,-692 821.564,-692 821.564,-213 821.564,-145.12 751.604,-101.962 692.444,-77.6025"/>
<polygon fill="black" stroke="black" points="694.896,-71.0456 673.718,-70.3465 689.838,-84.0999 694.896,-71.0456"/>
</g>
<!-- Mek -->
<g id="node11" class="node"><title>Mek</title>
<ellipse fill="white" stroke="black" stroke-width="2" cx="336.564" cy="-586" rx="72" ry="36"/>
<text text-anchor="middle" x="336.564" y="-580.2" font-family="Helvetica,sans-Serif" font-size="22.00">Mek</text>
</g>
<!-- Raf&#45;&gt;Mek -->
<g id="edge31" class="edge"><title>Raf&#45;&gt;Mek:center</title>
<path fill="none" stroke="black" stroke-width="3" d="M170.627,-820.058C203.444,-773.768 262.5,-690.469 300.589,-636.744"/>
<polygon fill="black" stroke="black" points="306.54,-640.453 312.396,-620.089 295.119,-632.356 306.54,-640.453"/>
</g>
<!-- Akt&#45;&gt;Mek -->
<g id="edge33" class="edge"><title>Akt&#45;&gt;Mek:center</title>
<path fill="none" stroke="red" stroke-width="3" d="M459.13,-818.964C433.638,-770.511 387.626,-683.054 359.807,-630.179"/>
<polygon fill="red" stroke="red" points="347.083,-627.471 364.783,-618.159 366.645,-621.699 348.945,-631.011 347.083,-627.471"/>
<polyline fill="none" stroke="red" points="355.002,-621.045 359.658,-629.895 "/>
</g>
<!-- p90RSK -->
<g id="node19" class="node"><title>p90RSK</title>
<ellipse fill="lightblue" stroke="lightblue" stroke-width="2" cx="273.564" cy="-52" rx="72" ry="36"/>
<text text-anchor="middle" x="273.564" y="-46.2" font-family="Helvetica,sans-Serif" font-size="22.00">p90RSK</text>
</g>
<!-- Mek&#45;&gt;p90RSK -->
<g id="edge35" class="edge"><title>Mek&#45;&gt;p90RSK:center</title>
<path fill="none" stroke="black" stroke-width="3" d="M314.529,-551.704C296.362,-520.096 273.564,-471.223 273.564,-425 273.564,-425 273.564,-425 273.564,-213 273.564,-178.307 273.564,-139.409 273.564,-108.538"/>
<polygon fill="black" stroke="black" points="280.564,-108.128 273.564,-88.1278 266.564,-108.128 280.564,-108.128"/>
</g>
<!-- Erk -->
<g id="node20" class="node"><title>Erk</title>
<ellipse fill="lightblue" stroke="lightblue" stroke-width="2" cx="477.564" cy="-319" rx="72" ry="36"/>
<text text-anchor="middle" x="477.564" y="-313.2" font-family="Helvetica,sans-Serif" font-size="22.00">Erk</text>
</g>
<!-- Mek&#45;&gt;Erk -->
<g id="edge37" class="edge"><title>Mek&#45;&gt;Erk:center</title>
<path fill="none" stroke="black" stroke-width="3" d="M354.997,-551.094C379.117,-505.421 421.607,-424.96 449.676,-371.809"/>
<polygon fill="black" stroke="black" points="455.976,-374.868 459.126,-353.914 443.596,-368.331 455.976,-374.868"/>
</g>
<!-- EGF -->
<g id="node13" class="node"><title>EGF</title>
<ellipse fill="#9acd32" stroke="#9acd32" cx="405.564" cy="-1388" rx="72" ry="36"/>
<text text-anchor="middle" x="405.564" y="-1382.2" font-family="Helvetica,sans-Serif" font-size="22.00">EGF</text>
</g>
<!-- EGF&#45;&gt;PI3K -->
<g id="edge9" class="edge"><title>EGF&#45;&gt;PI3K:center</title>
<path fill="none" stroke="black" stroke-width="3" d="M434.104,-1354.72C474.067,-1308.13 546.953,-1223.15 592.96,-1169.51"/>
<polygon fill="black" stroke="black" points="598.318,-1174.01 606.025,-1154.27 587.691,-1164.9 598.318,-1174.01"/>
</g>
<!-- EGF&#45;&gt;Ras -->
<g id="edge7" class="edge"><title>EGF&#45;&gt;Ras:center</title>
<path fill="none" stroke="black" stroke-width="3" d="M389.752,-1352.82C369.335,-1307.39 333.599,-1227.88 309.757,-1174.83"/>
<polygon fill="black" stroke="black" points="315.994,-1171.63 301.41,-1156.26 303.224,-1177.37 315.994,-1171.63"/>
</g>
<!-- TNFa -->
<g id="node14" class="node"><title>TNFa</title>
<ellipse fill="#9acd32" stroke="#9acd32" cx="795.564" cy="-1388" rx="72" ry="36"/>
<text text-anchor="middle" x="795.564" y="-1382.2" font-family="Helvetica,sans-Serif" font-size="22.00">TNFa</text>
</g>
<!-- TNFa&#45;&gt;TRAF6 -->
<g id="edge13" class="edge"><title>TNFa&#45;&gt;TRAF6:center</title>
<path fill="none" stroke="black" stroke-width="3" d="M821.696,-1354.45C857.809,-1308.1 923.23,-1224.12 964.978,-1170.53"/>
<polygon fill="black" stroke="black" points="970.605,-1174.7 977.374,-1154.62 959.561,-1166.09 970.605,-1174.7"/>
</g>
<!-- TNFa&#45;&gt;PI3K -->
<g id="edge11" class="edge"><title>TNFa&#45;&gt;PI3K:center</title>
<path fill="none" stroke="black" stroke-width="3" d="M774.681,-1353.37C746.993,-1307.45 697.897,-1226.03 665.792,-1172.79"/>
<polygon fill="black" stroke="black" points="671.732,-1169.08 655.41,-1155.57 659.743,-1176.31 671.732,-1169.08"/>
</g>
<!-- Erk&#45;&gt;Hsp27 -->
<g id="edge39" class="edge"><title>Erk&#45;&gt;Hsp27:center</title>
<path fill="none" stroke="black" stroke-width="3" d="M495.22,-283.82C518.069,-238.291 558.1,-158.529 584.723,-105.481"/>
<polygon fill="black" stroke="black" points="591.154,-108.273 593.869,-87.2581 578.641,-101.993 591.154,-108.273"/>
</g>
</g>
</svg>
