<?xml version="1.0" encoding="UTF-8" standalone="no"?>
<!DOCTYPE svg PUBLIC "-//W3C//DTD SVG 1.1//EN"
 "http://www.w3.org/Graphics/SVG/1.1/DTD/svg11.dtd">
<!-- Generated by graphviz version 2.26.3 (20100126.1600)
 -->
<!-- Title: foo Pages: 1 -->
<svg width="1080pt" height="1080pt"
 viewBox="0.00 0.00 1080.00 1080.00" xmlns="http://www.w3.org/2000/svg" xmlns:xlink="http://www.w3.org/1999/xlink">
<g id="graph1" class="graph" transform="scale(0.9375 0.9375) rotate(0) translate(36 1116)">
<title>foo</title>
<polygon fill="white" stroke="white" points="-36,37 -36,-1116 1117,-1116 1117,37 -36,37"/>
<!-- TRAF6 -->
<g id="node2" class="node"><title>TRAF6</title>
<ellipse fill="white" stroke="black" stroke-width="2" cx="396.973" cy="-840" rx="72" ry="36"/>
<text text-anchor="middle" x="396.973" y="-834.2" font-family="Helvetica,sans-Serif" font-size="22.00">TRAF6</text>
</g>
<!-- Jnk -->
<g id="node6" class="node"><title>Jnk</title>
<ellipse fill="lightblue" stroke="lightblue" stroke-width="2" cx="151.973" cy="-640" rx="72" ry="36"/>
<text text-anchor="middle" x="151.973" y="-634.2" font-family="Helvetica,sans-Serif" font-size="22.00">Jnk</text>
</g>
<!-- TRAF6&#45;&gt;Jnk -->
<g id="edge17" class="edge"><title>TRAF6&#45;&gt;Jnk:center</title>
<path fill="none" stroke="black" stroke-width="3" d="M359.228,-809.188C318.044,-775.569 251.791,-721.484 205.305,-683.536"/>
<polygon fill="black" stroke="black" points="209.68,-678.072 189.76,-670.847 200.826,-688.917 209.68,-678.072"/>
</g>
<!-- p38 -->
<g id="node7" class="node"><title>p38</title>
<ellipse fill="white" stroke="black" stroke-width="2" cx="493.973" cy="-640" rx="72" ry="36"/>
<text text-anchor="middle" x="493.973" y="-634.2" font-family="Helvetica,sans-Serif" font-size="22.00">p38</text>
</g>
<!-- TRAF6&#45;&gt;p38 -->
<g id="edge15" class="edge"><title>TRAF6&#45;&gt;p38:center</title>
<path fill="none" stroke="black" stroke-width="3" d="M414.091,-804.704C429.005,-773.953 450.858,-728.896 467.939,-693.678"/>
<polygon fill="black" stroke="black" points="474.433,-696.328 476.863,-675.279 461.836,-690.219 474.433,-696.328"/>
</g>
<!-- NFkB -->
<g id="node16" class="node"><title>NFkB</title>
<ellipse fill="lightblue" stroke="lightblue" stroke-width="2" cx="345.973" cy="-39" rx="72" ry="36"/>
<text text-anchor="middle" x="345.973" y="-33.2" font-family="Helvetica,sans-Serif" font-size="22.00">NFkB</text>
</g>
<!-- TRAF6&#45;&gt;NFkB -->
<g id="edge19" class="edge"><title>TRAF6&#45;&gt;NFkB:center</title>
<path fill="none" stroke="black" stroke-width="3" d="M373.711,-805.655C360.261,-782.494 345.973,-750.673 345.973,-720 345.973,-720 345.973,-720 345.973,-160 345.973,-138.796 345.973,-115.502 345.973,-95.0626"/>
<polygon fill="black" stroke="black" points="352.973,-95.0031 345.973,-75.0031 338.973,-95.0031 352.973,-95.0031"/>
</g>
<!-- PI3K -->
<g id="node3" class="node"><title>PI3K</title>
<ellipse fill="orangered" stroke="orangered" stroke-width="2" cx="973.973" cy="-840" rx="72" ry="36"/>
<text text-anchor="middle" x="973.973" y="-834.2" font-family="Helvetica,sans-Serif" font-size="22.00">PI3K</text>
</g>
<!-- Akt -->
<g id="node9" class="node"><title>Akt</title>
<ellipse fill="lightblue" stroke="lightblue" stroke-width="2" cx="973.973" cy="-640" rx="72" ry="36"/>
<text text-anchor="middle" x="973.973" y="-634.2" font-family="Helvetica,sans-Serif" font-size="22.00">Akt</text>
</g>
<!-- PI3K&#45;&gt;Akt -->
<g id="edge25" class="edge"><title>PI3K&#45;&gt;Akt:center</title>
<path fill="none" stroke="black" stroke-width="3" d="M973.973,-803.782C973.973,-773.858 973.973,-730.857 973.973,-696.425"/>
<polygon fill="black" stroke="black" points="980.973,-696.286 973.973,-676.286 966.973,-696.286 980.973,-696.286"/>
</g>
<!-- Ras -->
<g id="node4" class="node"><title>Ras</title>
<ellipse fill="white" stroke="black" stroke-width="2" cx="733.973" cy="-840" rx="72" ry="36"/>
<text text-anchor="middle" x="733.973" y="-834.2" font-family="Helvetica,sans-Serif" font-size="22.00">Ras</text>
</g>
<!-- Raf -->
<g id="node8" class="node"><title>Raf</title>
<ellipse fill="orangered" stroke="orangered" stroke-width="2" cx="733.973" cy="-640" rx="72" ry="36"/>
<text text-anchor="middle" x="733.973" y="-634.2" font-family="Helvetica,sans-Serif" font-size="22.00">Raf</text>
</g>
<!-- Ras&#45;&gt;Raf -->
<g id="edge27" class="edge"><title>Ras&#45;&gt;Raf:center</title>
<path fill="none" stroke="black" stroke-width="3" d="M733.973,-803.782C733.973,-773.858 733.973,-730.857 733.973,-696.425"/>
<polygon fill="black" stroke="black" points="740.973,-696.286 733.973,-676.286 726.973,-696.286 740.973,-696.286"/>
</g>
<!-- cJun -->
<g id="node17" class="node"><title>cJun</title>
<ellipse fill="lightblue" stroke="lightblue" stroke-width="2" cx="106.973" cy="-39" rx="72" ry="36"/>
<text text-anchor="middle" x="106.973" y="-33.2" font-family="Helvetica,sans-Serif" font-size="22.00">cJun</text>
</g>
<!-- Jnk&#45;&gt;cJun -->
<g id="edge21" class="edge"><title>Jnk&#45;&gt;cJun:center</title>
<path fill="none" stroke="black" stroke-width="3" d="M131.579,-605.257C119.673,-581.726 106.973,-549.481 106.973,-519 106.973,-519 106.973,-519 106.973,-160 106.973,-138.796 106.973,-115.502 106.973,-95.0626"/>
<polygon fill="black" stroke="black" points="113.973,-95.0031 106.973,-75.0031 99.9727,-95.0031 113.973,-95.0031"/>
</g>
<!-- Hsp27 -->
<g id="node18" class="node"><title>Hsp27</title>
<ellipse fill="lightblue" stroke="lightblue" stroke-width="2" cx="585.973" cy="-39" rx="72" ry="36"/>
<text text-anchor="middle" x="585.973" y="-33.2" font-family="Helvetica,sans-Serif" font-size="22.00">Hsp27</text>
</g>
<!-- p38&#45;&gt;Hsp27 -->
<g id="edge23" class="edge"><title>p38&#45;&gt;Hsp27:center</title>
<path fill="none" stroke="black" stroke-width="3" d="M498.051,-604.049C500.433,-580.007 502.973,-547.648 502.973,-519 502.973,-519 502.973,-519 502.973,-160 502.973,-131.986 518.288,-105.712 535.762,-84.8528"/>
<polygon fill="black" stroke="black" points="540.996,-89.5013 549.326,-70.0176 530.664,-80.0542 540.996,-89.5013"/>
</g>
<!-- Mek -->
<g id="node11" class="node"><title>Mek</title>
<ellipse fill="white" stroke="black" stroke-width="2" cx="788.973" cy="-440" rx="72" ry="36"/>
<text text-anchor="middle" x="788.973" y="-434.2" font-family="Helvetica,sans-Serif" font-size="22.00">Mek</text>
</g>
<!-- Raf&#45;&gt;Mek -->
<g id="edge29" class="edge"><title>Raf&#45;&gt;Mek:center</title>
<path fill="none" stroke="black" stroke-width="3" d="M743.806,-604.244C752.109,-574.048 764.14,-530.3 773.697,-495.546"/>
<polygon fill="black" stroke="black" points="780.579,-496.923 779.132,-475.783 767.08,-493.211 780.579,-496.923"/>
</g>
<!-- Akt&#45;&gt;Mek -->
<g id="edge31" class="edge"><title>Akt&#45;&gt;Mek:center</title>
<path fill="none" stroke="red" stroke-width="3" d="M943.424,-606.974C911.327,-572.275 860.811,-517.663 826.356,-480.414"/>
<polygon fill="red" stroke="red" points="813.277,-481.001 827.959,-467.42 830.675,-470.357 815.993,-483.938 813.277,-481.001"/>
<polyline fill="none" stroke="red" points="819.259,-472.743 826.05,-480.084 "/>
</g>
<!-- p90RSK -->
<g id="node19" class="node"><title>p90RSK</title>
<ellipse fill="lightblue" stroke="lightblue" stroke-width="2" cx="825.973" cy="-39" rx="72" ry="36"/>
<text text-anchor="middle" x="825.973" y="-33.2" font-family="Helvetica,sans-Serif" font-size="22.00">p90RSK</text>
</g>
<!-- Mek&#45;&gt;p90RSK -->
<g id="edge33" class="edge"><title>Mek&#45;&gt;p90RSK:center</title>
<path fill="none" stroke="black" stroke-width="3" d="M805.74,-404.858C815.53,-381.157 825.973,-348.875 825.973,-319 825.973,-319 825.973,-319 825.973,-160 825.973,-138.796 825.973,-115.502 825.973,-95.0626"/>
<polygon fill="black" stroke="black" points="832.973,-95.0031 825.973,-75.0031 818.973,-95.0031 832.973,-95.0031"/>
</g>
<!-- Erk -->
<g id="node20" class="node"><title>Erk</title>
<ellipse fill="lightblue" stroke="lightblue" stroke-width="2" cx="668.973" cy="-240" rx="72" ry="36"/>
<text text-anchor="middle" x="668.973" y="-234.2" font-family="Helvetica,sans-Serif" font-size="22.00">Erk</text>
</g>
<!-- Mek&#45;&gt;Erk -->
<g id="edge35" class="edge"><title>Mek&#45;&gt;Erk:center</title>
<path fill="none" stroke="black" stroke-width="3" d="M768.07,-405.163C749.372,-373.998 721.7,-327.879 700.346,-292.289"/>
<polygon fill="black" stroke="black" points="706.129,-288.321 689.836,-274.773 694.124,-295.524 706.129,-288.321"/>
</g>
<!-- EGF -->
<g id="node13" class="node"><title>EGF</title>
<ellipse fill="#9acd32" stroke="#9acd32" cx="875.973" cy="-1041" rx="72" ry="36"/>
<text text-anchor="middle" x="875.973" y="-1035.2" font-family="Helvetica,sans-Serif" font-size="22.00">EGF</text>
</g>
<!-- EGF&#45;&gt;PI3K -->
<g id="edge9" class="edge"><title>EGF&#45;&gt;PI3K:center</title>
<path fill="none" stroke="black" stroke-width="3" d="M893.043,-1005.99C908.197,-974.907 930.568,-929.024 947.951,-893.371"/>
<polygon fill="black" stroke="black" points="954.296,-896.33 956.769,-875.285 941.712,-890.194 954.296,-896.33"/>
</g>
<!-- EGF&#45;&gt;Ras -->
<g id="edge7" class="edge"><title>EGF&#45;&gt;Ras:center</title>
<path fill="none" stroke="black" stroke-width="3" d="M851.884,-1006.9C829.444,-975.139 795.688,-927.357 770.036,-891.047"/>
<polygon fill="black" stroke="black" points="775.436,-886.56 758.179,-874.264 764.002,-894.638 775.436,-886.56"/>
</g>
<!-- TNFa -->
<g id="node14" class="node"><title>TNFa</title>
<ellipse fill="#9acd32" stroke="#9acd32" cx="588.973" cy="-1041" rx="72" ry="36"/>
<text text-anchor="middle" x="588.973" y="-1035.2" font-family="Helvetica,sans-Serif" font-size="22.00">TNFa</text>
</g>
<!-- TNFa&#45;&gt;TRAF6 -->
<g id="edge13" class="edge"><title>TNFa&#45;&gt;TRAF6:center</title>
<path fill="none" stroke="black" stroke-width="3" d="M557.697,-1008.26C526.317,-975.407 477.666,-924.476 442.107,-887.251"/>
<polygon fill="black" stroke="black" points="447.111,-882.355 428.235,-872.727 436.988,-892.025 447.111,-882.355"/>
</g>
<!-- TNFa&#45;&gt;PI3K -->
<g id="edge11" class="edge"><title>TNFa&#45;&gt;PI3K:center</title>
<path fill="none" stroke="black" stroke-width="3" d="M638.91,-1014.93C707.14,-979.307 829.733,-915.304 906.205,-875.38"/>
<polygon fill="black" stroke="black" points="909.634,-881.486 924.124,-866.025 903.155,-869.076 909.634,-881.486"/>
</g>
<!-- Erk&#45;&gt;Hsp27 -->
<g id="edge37" class="edge"><title>Erk&#45;&gt;Hsp27:center</title>
<path fill="none" stroke="black" stroke-width="3" d="M654.325,-204.528C641.563,-173.623 622.865,-128.341 608.249,-92.9469"/>
<polygon fill="black" stroke="black" points="614.717,-90.2691 600.613,-74.455 601.777,-95.6126 614.717,-90.2691"/>
</g>
</g>
</svg>
