<?xml version="1.0" encoding="UTF-8" standalone="no"?>
<!DOCTYPE svg PUBLIC "-//W3C//DTD SVG 1.1//EN"
 "http://www.w3.org/Graphics/SVG/1.1/DTD/svg11.dtd">
<!-- Generated by graphviz version 2.26.3 (20100126.1600)
 -->
<!-- Title: foo Pages: 1 -->
<svg width="1440pt" height="1440pt"
 viewBox="0.00 0.00 1440.00 1440.00" xmlns="http://www.w3.org/2000/svg" xmlns:xlink="http://www.w3.org/1999/xlink">
<g id="graph1" class="graph" transform="scale(0.916031 0.916031) rotate(0) translate(36 1536)">
<title>foo</title>
<polygon fill="white" stroke="white" points="-36,37 -36,-1536 1537,-1536 1537,37 -36,37"/>
<!-- EGFR -->
<g id="node2" class="node"><title>EGFR</title>
<ellipse fill="white" stroke="black" stroke-width="2" cx="478.264" cy="-1280" rx="72" ry="36"/>
<text text-anchor="middle" x="478.264" y="-1274.2" font-family="Helvetica,sans-Serif" font-size="22.00">EGFR</text>
</g>
<!-- Shc -->
<g id="node5" class="node"><title>Shc</title>
<ellipse fill="white" stroke="black" stroke-width="2" cx="147.264" cy="-1096" rx="72" ry="36"/>
<text text-anchor="middle" x="147.264" y="-1090.2" font-family="Helvetica,sans-Serif" font-size="22.00">Shc</text>
</g>
<!-- EGFR&#45;&gt;Shc -->
<g id="edge9" class="edge"><title>EGFR&#45;&gt;Shc:center</title>
<path fill="none" stroke="black" stroke-width="3" d="M429.78,-1253.05C372.537,-1221.23 277.056,-1168.15 213.143,-1132.62"/>
<polygon fill="black" stroke="black" points="216.491,-1126.47 195.609,-1122.87 209.689,-1138.71 216.491,-1126.47"/>
</g>
<!-- Grb2Sos -->
<g id="node6" class="node"><title>Grb2Sos</title>
<ellipse fill="white" stroke="black" stroke-width="2" cx="809.264" cy="-1096" rx="72" ry="36"/>
<text text-anchor="middle" x="809.264" y="-1090.2" font-family="Helvetica,sans-Serif" font-size="22.00">Grb2Sos</text>
</g>
<!-- EGFR&#45;&gt;Grb2Sos -->
<g id="edge11" class="edge"><title>EGFR&#45;&gt;Grb2Sos:center</title>
<path fill="none" stroke="black" stroke-width="3" d="M526.749,-1253.05C583.992,-1221.23 679.473,-1168.15 743.385,-1132.62"/>
<polygon fill="black" stroke="black" points="746.84,-1138.71 760.919,-1122.87 740.037,-1126.47 746.84,-1138.71"/>
</g>
<!-- PI3K -->
<g id="node7" class="node"><title>PI3K</title>
<ellipse fill="orangered" stroke="orangered" stroke-width="2" cx="478.264" cy="-1096" rx="72" ry="36"/>
<text text-anchor="middle" x="478.264" y="-1090.2" font-family="Helvetica,sans-Serif" font-size="22.00">PI3K</text>
</g>
<!-- EGFR&#45;&gt;PI3K -->
<g id="edge13" class="edge"><title>EGFR&#45;&gt;PI3K:center</title>
<path fill="none" stroke="black" stroke-width="3" d="M478.264,-1243.65C478.264,-1217.69 478.264,-1182.27 478.264,-1152.62"/>
<polygon fill="black" stroke="black" points="485.264,-1152.28 478.264,-1132.28 471.264,-1152.28 485.264,-1152.28"/>
</g>
<!-- TNFR -->
<g id="node3" class="node"><title>TNFR</title>
<ellipse fill="white" stroke="black" stroke-width="2" cx="1218.26" cy="-1280" rx="72" ry="36"/>
<text text-anchor="middle" x="1218.26" y="-1274.2" font-family="Helvetica,sans-Serif" font-size="22.00">TNFR</text>
</g>
<!-- TRADD -->
<g id="node8" class="node"><title>TRADD</title>
<ellipse fill="white" stroke="black" stroke-width="2" cx="1218.26" cy="-1096" rx="72" ry="36"/>
<text text-anchor="middle" x="1218.26" y="-1090.2" font-family="Helvetica,sans-Serif" font-size="22.00">TRADD</text>
</g>
<!-- TNFR&#45;&gt;TRADD -->
<g id="edge35" class="edge"><title>TNFR&#45;&gt;TRADD:center</title>
<path fill="none" stroke="black" stroke-width="3" d="M1218.26,-1243.65C1218.26,-1217.69 1218.26,-1182.27 1218.26,-1152.62"/>
<polygon fill="black" stroke="black" points="1225.26,-1152.28 1218.26,-1132.28 1211.26,-1152.28 1225.26,-1152.28"/>
</g>
<!-- IKKab -->
<g id="node12" class="node"><title>IKKab</title>
<ellipse fill="white" stroke="black" stroke-width="2" cx="556.264" cy="-912" rx="72" ry="36"/>
<text text-anchor="middle" x="556.264" y="-906.2" font-family="Helvetica,sans-Serif" font-size="22.00">IKKab</text>
</g>
<!-- TNFR&#45;&gt;IKKab -->
<g id="edge33" class="edge"><title>TNFR&#45;&gt;IKKab:center</title>
<path fill="none" stroke="black" stroke-width="3" d="M1148.29,-1271.21C1088.9,-1259.37 1013.26,-1231.93 1013.26,-1169 1013.26,-1169 1013.26,-1169 1013.26,-1023 1013.26,-985.567 778.746,-944.803 645.708,-924.69"/>
<polygon fill="black" stroke="black" points="646.487,-917.729 625.673,-921.701 644.421,-931.576 646.487,-917.729"/>
</g>
<!-- C8 -->
<g id="node18" class="node"><title>C8</title>
<ellipse fill="lightblue" stroke="lightblue" stroke-width="2" cx="1353.26" cy="-36" rx="72" ry="36"/>
<text text-anchor="middle" x="1353.26" y="-30.2" font-family="Helvetica,sans-Serif" font-size="22.00">C8</text>
</g>
<!-- TNFR&#45;&gt;C8 -->
<g id="edge37" class="edge"><title>TNFR&#45;&gt;C8:center</title>
<path fill="none" stroke="black" stroke-width="3" d="M1288.18,-1271.04C1347.24,-1259.09 1422.26,-1231.6 1422.26,-1169 1422.26,-1169 1422.26,-1169 1422.26,-147 1422.26,-124.358 1411.78,-102.503 1398.99,-84.2606"/>
<polygon fill="black" stroke="black" points="1404.36,-79.7693 1386.55,-68.2884 1393.31,-88.3698 1404.36,-79.7693"/>
</g>
<!-- Shc&#45;&gt;Grb2Sos -->
<g id="edge15" class="edge"><title>Shc&#45;&gt;Grb2Sos:center</title>
<path fill="none" stroke="black" stroke-width="3" d="M210.819,-1113.07C262.901,-1126.12 338.758,-1143.04 406.264,-1150 469.927,-1156.57 486.602,-1156.57 550.264,-1150 609.728,-1143.87 675.671,-1130.01 726.137,-1117.87"/>
<polygon fill="black" stroke="black" points="727.957,-1124.63 745.71,-1113.07 724.617,-1111.04 727.957,-1124.63"/>
</g>
<!-- Ras -->
<g id="node10" class="node"><title>Ras</title>
<ellipse fill="white" stroke="black" stroke-width="2" cx="887.264" cy="-912" rx="72" ry="36"/>
<text text-anchor="middle" x="887.264" y="-906.2" font-family="Helvetica,sans-Serif" font-size="22.00">Ras</text>
</g>
<!-- Grb2Sos&#45;&gt;Ras -->
<g id="edge17" class="edge"><title>Grb2Sos&#45;&gt;Ras:center</title>
<path fill="none" stroke="black" stroke-width="3" d="M824.303,-1060.52C835.688,-1033.67 851.519,-996.322 864.458,-965.799"/>
<polygon fill="black" stroke="black" points="870.91,-968.514 872.271,-947.368 858.021,-963.05 870.91,-968.514"/>
</g>
<!-- AKT -->
<g id="node11" class="node"><title>AKT</title>
<ellipse fill="lightblue" stroke="lightblue" stroke-width="2" cx="225.264" cy="-912" rx="72" ry="36"/>
<text text-anchor="middle" x="225.264" y="-906.2" font-family="Helvetica,sans-Serif" font-size="22.00">AKT</text>
</g>
<!-- PI3K&#45;&gt;AKT -->
<g id="edge25" class="edge"><title>PI3K&#45;&gt;AKT:center</title>
<path fill="none" stroke="black" stroke-width="3" d="M437.334,-1066.23C395.359,-1035.71 329.72,-987.968 282.585,-953.688"/>
<polygon fill="black" stroke="black" points="286.427,-947.827 266.135,-941.725 278.193,-959.149 286.427,-947.827"/>
</g>
<!-- PI3K&#45;&gt;IKKab -->
<g id="edge27" class="edge"><title>PI3K&#45;&gt;IKKab:center</title>
<path fill="none" stroke="black" stroke-width="3" d="M493.303,-1060.52C504.688,-1033.67 520.519,-996.322 533.458,-965.799"/>
<polygon fill="black" stroke="black" points="539.91,-968.514 541.271,-947.368 527.021,-963.05 539.91,-968.514"/>
</g>
<!-- TRADD&#45;&gt;C8 -->
<g id="edge39" class="edge"><title>TRADD&#45;&gt;C8:center</title>
<path fill="none" stroke="black" stroke-width="3" d="M1248.66,-1063.21C1264.77,-1042.41 1281.26,-1014.03 1281.26,-985 1281.26,-985 1281.26,-985 1281.26,-147 1281.26,-123.962 1292.32,-101.938 1305.76,-83.6694"/>
<polygon fill="black" stroke="black" points="1311.3,-87.9465 1318.53,-68.0268 1300.46,-79.0929 1311.3,-87.9465"/>
</g>
<!-- Raf -->
<g id="node19" class="node"><title>Raf</title>
<ellipse fill="orangered" stroke="orangered" stroke-width="2" cx="862.264" cy="-620" rx="72" ry="36"/>
<text text-anchor="middle" x="862.264" y="-614.2" font-family="Helvetica,sans-Serif" font-size="22.00">Raf</text>
</g>
<!-- Ras&#45;&gt;Raf -->
<g id="edge19" class="edge"><title>Ras&#45;&gt;Raf:center</title>
<path fill="none" stroke="black" stroke-width="3" d="M884.174,-875.902C879.892,-825.892 872.114,-735.046 867.071,-676.138"/>
<polygon fill="black" stroke="black" points="874.028,-675.345 865.348,-656.015 860.08,-676.54 874.028,-675.345"/>
</g>
<!-- GSK3 -->
<g id="node23" class="node"><title>GSK3</title>
<ellipse fill="white" stroke="black" stroke-width="2" cx="225.264" cy="-512" rx="72" ry="36"/>
<text text-anchor="middle" x="225.264" y="-506.2" font-family="Helvetica,sans-Serif" font-size="22.00">GSK3</text>
</g>
<!-- AKT&#45;&gt;GSK3 -->
<g id="edge29" class="edge"><title>AKT&#45;&gt;GSK3:center</title>
<path fill="none" stroke="red" stroke-width="3" d="M225.264,-875.756C225.264,-854.067 225.264,-825.956 225.264,-801 225.264,-801 225.264,-801 225.264,-728 225.264,-669.502 225.264,-602.093 225.264,-558.354"/>
<polygon fill="red" stroke="red" points="215.264,-550.307 235.264,-550.307 235.264,-554.307 215.264,-554.307 215.264,-550.307"/>
<polyline fill="none" stroke="red" points="225.264,-548.307 225.264,-558.307 "/>
</g>
<!-- Ikb -->
<g id="node21" class="node"><title>Ikb</title>
<ellipse fill="white" stroke="black" stroke-width="2" cx="635.264" cy="-728" rx="72" ry="36"/>
<text text-anchor="middle" x="635.264" y="-722.2" font-family="Helvetica,sans-Serif" font-size="22.00">Ikb</text>
</g>
<!-- IKKab&#45;&gt;Ikb -->
<g id="edge41" class="edge"><title>IKKab&#45;&gt;Ikb:center</title>
<path fill="none" stroke="red" stroke-width="3" d="M571.496,-876.523C584.174,-846.995 602.297,-804.785 615.985,-772.905"/>
<polygon fill="red" stroke="red" points="610.101,-761.261 628.479,-769.151 626.901,-772.827 608.523,-764.936 610.101,-761.261"/>
<polyline fill="none" stroke="red" points="620.079,-763.368 616.134,-772.557 "/>
</g>
<!-- TGFa -->
<g id="node14" class="node"><title>TGFa</title>
<ellipse fill="#9acd32" stroke="#9acd32" cx="478.264" cy="-1464" rx="72" ry="36"/>
<text text-anchor="middle" x="478.264" y="-1458.2" font-family="Helvetica,sans-Serif" font-size="22.00">TGFa</text>
</g>
<!-- TGFa&#45;&gt;EGFR -->
<g id="edge7" class="edge"><title>TGFa&#45;&gt;EGFR:center</title>
<path fill="none" stroke="black" stroke-width="3" d="M478.264,-1427.65C478.264,-1401.69 478.264,-1366.27 478.264,-1336.62"/>
<polygon fill="black" stroke="black" points="485.264,-1336.28 478.264,-1316.28 471.264,-1336.28 485.264,-1336.28"/>
</g>
<!-- TNFa -->
<g id="node15" class="node"><title>TNFa</title>
<ellipse fill="#9acd32" stroke="#9acd32" cx="1218.26" cy="-1464" rx="72" ry="36"/>
<text text-anchor="middle" x="1218.26" y="-1458.2" font-family="Helvetica,sans-Serif" font-size="22.00">TNFa</text>
</g>
<!-- TNFa&#45;&gt;TNFR -->
<g id="edge31" class="edge"><title>TNFa&#45;&gt;TNFR:center</title>
<path fill="none" stroke="black" stroke-width="3" d="M1218.26,-1427.65C1218.26,-1401.69 1218.26,-1366.27 1218.26,-1336.62"/>
<polygon fill="black" stroke="black" points="1225.26,-1336.28 1218.26,-1316.28 1211.26,-1336.28 1225.26,-1336.28"/>
</g>
<!-- ERK -->
<g id="node17" class="node"><title>ERK</title>
<ellipse fill="lightblue" stroke="lightblue" stroke-width="2" cx="809.264" cy="-36" rx="72" ry="36"/>
<text text-anchor="middle" x="809.264" y="-30.2" font-family="Helvetica,sans-Serif" font-size="22.00">ERK</text>
</g>
<!-- MEK -->
<g id="node20" class="node"><title>MEK</title>
<ellipse fill="white" stroke="black" stroke-width="2" cx="809.264" cy="-220" rx="72" ry="36"/>
<text text-anchor="middle" x="809.264" y="-214.2" font-family="Helvetica,sans-Serif" font-size="22.00">MEK</text>
</g>
<!-- Raf&#45;&gt;MEK -->
<g id="edge21" class="edge"><title>Raf&#45;&gt;MEK:center</title>
<path fill="none" stroke="black" stroke-width="3" d="M858.476,-583.739C854.33,-540.863 848.264,-467.32 848.264,-404 848.264,-404 848.264,-404 848.264,-331 848.264,-311.604 842.898,-291.324 836.147,-273.485"/>
<polygon fill="black" stroke="black" points="842.531,-270.608 828.307,-254.902 829.631,-276.05 842.531,-270.608"/>
</g>
<!-- MEK&#45;&gt;ERK -->
<g id="edge23" class="edge"><title>MEK&#45;&gt;ERK:center</title>
<path fill="none" stroke="black" stroke-width="3" d="M809.264,-183.648C809.264,-157.69 809.264,-122.266 809.264,-92.6223"/>
<polygon fill="black" stroke="black" points="816.264,-92.2769 809.264,-72.277 802.264,-92.277 816.264,-92.2769"/>
</g>
<!-- NFkB -->
<g id="node22" class="node"><title>NFkB</title>
<ellipse fill="lightblue" stroke="lightblue" stroke-width="2" cx="641.264" cy="-404" rx="72" ry="36"/>
<text text-anchor="middle" x="641.264" y="-398.2" font-family="Helvetica,sans-Serif" font-size="22.00">NFkB</text>
</g>
<!-- Ikb&#45;&gt;NFkB -->
<g id="edge43" class="edge"><title>Ikb&#45;&gt;NFkB:center</title>
<path fill="none" stroke="red" stroke-width="3" d="M635.935,-691.776C637.027,-632.805 639.188,-516.094 640.396,-450.88"/>
<polygon fill="red" stroke="red" points="630.553,-442.301 650.55,-442.671 650.476,-446.67 630.479,-446.3 630.553,-442.301"/>
<polyline fill="none" stroke="red" points="640.589,-440.486 640.403,-450.485 "/>
</g>
<!-- NFkB&#45;&gt;MEK -->
<g id="edge45" class="edge"><title>NFkB&#45;&gt;MEK:center</title>
<path fill="none" stroke="black" stroke-width="3" d="M671.299,-371.104C697.497,-342.412 735.84,-300.417 765.459,-267.978"/>
<polygon fill="black" stroke="black" points="770.891,-272.41 779.207,-252.92 760.552,-262.97 770.891,-272.41"/>
</g>
</g>
</svg>
