<?xml version="1.0" encoding="UTF-8" standalone="no"?>
<!DOCTYPE svg PUBLIC "-//W3C//DTD SVG 1.1//EN"
 "http://www.w3.org/Graphics/SVG/1.1/DTD/svg11.dtd">
<!-- Generated by graphviz version 2.28.0 (20120228.1928)
 -->
<!-- Title: _anonymous_0 Pages: 1 -->
<svg width="381pt" height="548pt"
 viewBox="0.00 0.00 381.00 548.00" xmlns="http://www.w3.org/2000/svg" xmlns:xlink="http://www.w3.org/1999/xlink">
<g id="graph1" class="graph" transform="scale(1 1) rotate(0) translate(4 544)">
<title>_anonymous_0</title>
<polygon fill="white" stroke="white" points="-4,5 -4,-544 378,-544 378,5 -4,5"/>
<!-- C8 -->
<g id="node2" class="node"><title>C8</title>
<polygon fill="lightblue" stroke="black" stroke-width="2" points="296,-36 242,-36 242,-0 296,-0 296,-36"/>
<text text-anchor="middle" x="269" y="-14.3" font-family="bold" font-size="14.00">C8</text>
</g>
<!-- ERK -->
<g id="node3" class="node"><title>ERK</title>
<polygon fill="lightblue" stroke="black" stroke-width="2" points="368,-36 314,-36 314,-0 368,-0 368,-36"/>
<text text-anchor="middle" x="341" y="-14.3" font-family="bold" font-size="14.00">ERK</text>
</g>
<!-- C8&#45;&gt;ERK -->
<!-- TGFa -->
<g id="node6" class="node"><title>TGFa</title>
<polygon fill="#9acd32" stroke="black" stroke-width="2" points="137.25,-540 80.75,-540 80.75,-504 137.25,-504 137.25,-540"/>
<text text-anchor="middle" x="109" y="-518.3" font-family="bold" font-size="14.00">TGFa</text>
</g>
<!-- TNFa -->
<g id="node7" class="node"><title>TNFa</title>
<polygon fill="#9acd32" stroke="black" stroke-width="2" points="297.5,-540 240.5,-540 240.5,-504 297.5,-504 297.5,-540"/>
<text text-anchor="middle" x="269" y="-518.3" font-family="bold" font-size="14.00">TNFa</text>
</g>
<!-- TGFa&#45;&gt;TNFa -->
<!-- EGFR -->
<g id="node9" class="node"><title>EGFR</title>
<polygon fill="none" stroke="black" stroke-width="2" stroke-dasharray="5,2" points="139.25,-468 78.75,-468 78.75,-432 139.25,-432 139.25,-468"/>
<text text-anchor="middle" x="109" y="-446.3" font-family="bold" font-size="14.00">EGFR</text>
</g>
<!-- TGFa&#45;&gt;EGFR -->
<g id="edge8" class="edge"><title>TGFa&#45;&gt;EGFR</title>
<path fill="none" stroke="black" d="M109,-503.697C109,-495.983 109,-486.712 109,-478.112"/>
<polygon fill="black" stroke="black" points="112.5,-478.104 109,-468.104 105.5,-478.104 112.5,-478.104"/>
</g>
<!-- TNFR -->
<g id="node16" class="node"><title>TNFR</title>
<polygon fill="none" stroke="black" stroke-width="2" stroke-dasharray="5,2" points="299.5,-396 238.5,-396 238.5,-360 299.5,-360 299.5,-396"/>
<text text-anchor="middle" x="269" y="-374.3" font-family="bold" font-size="14.00">TNFR</text>
</g>
<!-- TNFa&#45;&gt;TNFR -->
<g id="edge42" class="edge"><title>TNFa&#45;&gt;TNFR</title>
<path fill="none" stroke="black" d="M269,-503.871C269,-479.67 269,-435.211 269,-406.393"/>
<polygon fill="black" stroke="black" points="272.5,-406.189 269,-396.189 265.5,-406.189 272.5,-406.189"/>
</g>
<!-- Grb2Sos -->
<g id="node21" class="node"><title>Grb2Sos</title>
<polygon fill="none" stroke="black" stroke-width="2" stroke-dasharray="5,2" points="82.25,-324 -0.25,-324 -0.25,-288 82.25,-288 82.25,-324"/>
<text text-anchor="middle" x="41" y="-302.3" font-family="bold" font-size="14.00">Grb2Sos</text>
</g>
<!-- EGFR&#45;&gt;Grb2Sos -->
<g id="edge28" class="edge"><title>EGFR&#45;&gt;Grb2Sos</title>
<path fill="none" stroke="black" d="M95.0429,-431.62C87.4964,-421.627 78.4327,-408.591 72,-396 61.8098,-376.054 53.6534,-351.99 48.2696,-333.916"/>
<polygon fill="black" stroke="black" points="51.6305,-332.939 45.4972,-324.3 44.9044,-334.878 51.6305,-332.939"/>
</g>
<!-- PI3K -->
<g id="node24" class="node"><title>PI3K</title>
<polygon fill="orangered" stroke="black" stroke-width="2" points="136.5,-396 81.5,-396 81.5,-360 136.5,-360 136.5,-396"/>
<text text-anchor="middle" x="109" y="-374.3" font-family="bold" font-size="14.00">PI3K</text>
</g>
<!-- EGFR&#45;&gt;PI3K -->
<g id="edge30" class="edge"><title>EGFR&#45;&gt;PI3K</title>
<path fill="none" stroke="black" d="M109,-431.697C109,-423.983 109,-414.712 109,-406.112"/>
<polygon fill="black" stroke="black" points="112.5,-406.104 109,-396.104 105.5,-406.104 112.5,-406.104"/>
</g>
<!-- Shc -->
<g id="node32" class="node"><title>Shc</title>
<polygon fill="none" stroke="black" stroke-width="2" stroke-dasharray="5,2" points="209,-396 155,-396 155,-360 209,-360 209,-396"/>
<text text-anchor="middle" x="182" y="-374.3" font-family="bold" font-size="14.00">Shc</text>
</g>
<!-- EGFR&#45;&gt;Shc -->
<g id="edge32" class="edge"><title>EGFR&#45;&gt;Shc</title>
<path fill="none" stroke="black" d="M127.045,-431.697C136.062,-423.05 147.118,-412.449 156.943,-403.027"/>
<polygon fill="black" stroke="black" points="159.367,-405.552 164.163,-396.104 154.522,-400.499 159.367,-405.552"/>
</g>
<!-- Raf -->
<g id="node11" class="node"><title>Raf</title>
<polygon fill="orangered" stroke="black" stroke-width="2" points="76,-180 22,-180 22,-144 76,-144 76,-180"/>
<text text-anchor="middle" x="49" y="-158.3" font-family="bold" font-size="14.00">Raf</text>
</g>
<!-- MEK -->
<g id="node12" class="node"><title>MEK</title>
<polygon fill="none" stroke="black" stroke-width="2" stroke-dasharray="5,2" points="234.5,-108 179.5,-108 179.5,-72 234.5,-72 234.5,-108"/>
<text text-anchor="middle" x="207" y="-86.3" font-family="bold" font-size="14.00">MEK</text>
</g>
<!-- Raf&#45;&gt;MEK -->
<g id="edge10" class="edge"><title>Raf&#45;&gt;MEK</title>
<path fill="none" stroke="black" d="M76.1612,-148.967C102.083,-137.482 141.335,-120.092 170.086,-107.354"/>
<polygon fill="black" stroke="black" points="171.674,-110.479 179.399,-103.228 168.838,-104.079 171.674,-110.479"/>
</g>
<!-- MEK&#45;&gt;ERK -->
<g id="edge34" class="edge"><title>MEK&#45;&gt;ERK</title>
<path fill="none" stroke="black" d="M234.765,-74.496C255.022,-63.9139 282.667,-49.4723 304.679,-37.9738"/>
<polygon fill="black" stroke="black" points="306.486,-40.9784 313.729,-33.246 303.245,-34.774 306.486,-40.9784"/>
</g>
<!-- TRADD -->
<g id="node14" class="node"><title>TRADD</title>
<polygon fill="none" stroke="black" stroke-width="2" stroke-dasharray="5,2" points="373,-108 297,-108 297,-72 373,-72 373,-108"/>
<text text-anchor="middle" x="335" y="-86.3" font-family="bold" font-size="14.00">TRADD</text>
</g>
<!-- TRADD&#45;&gt;C8 -->
<g id="edge12" class="edge"><title>TRADD&#45;&gt;C8</title>
<path fill="none" stroke="black" d="M318.685,-71.6966C310.693,-63.2198 300.928,-52.8636 292.178,-43.5826"/>
<polygon fill="black" stroke="black" points="294.534,-40.9792 285.127,-36.1043 289.441,-45.7813 294.534,-40.9792"/>
</g>
<!-- TNFR&#45;&gt;C8 -->
<g id="edge14" class="edge"><title>TNFR&#45;&gt;C8</title>
<path fill="none" stroke="black" d="M269,-359.951C269,-333.292 269,-280.115 269,-235 269,-235 269,-235 269,-161 269,-120.996 269,-74.6528 269,-46.0798"/>
<polygon fill="black" stroke="black" points="272.5,-46.0492 269,-36.0493 265.5,-46.0493 272.5,-46.0492"/>
</g>
<!-- TNFR&#45;&gt;TRADD -->
<g id="edge18" class="edge"><title>TNFR&#45;&gt;TRADD</title>
<path fill="none" stroke="black" d="M273.708,-359.857C276.508,-349.5 280.072,-336.021 283,-324 301.122,-249.596 320.173,-161.221 329.371,-117.799"/>
<polygon fill="black" stroke="black" points="332.797,-118.516 331.44,-108.009 325.948,-117.069 332.797,-118.516"/>
</g>
<!-- IKKab -->
<g id="node18" class="node"><title>IKKab</title>
<polygon fill="none" stroke="black" stroke-width="2" stroke-dasharray="5,2" points="241,-324 173,-324 173,-288 241,-288 241,-324"/>
<text text-anchor="middle" x="207" y="-302.3" font-family="bold" font-size="14.00">IKKab</text>
</g>
<!-- TNFR&#45;&gt;IKKab -->
<g id="edge16" class="edge"><title>TNFR&#45;&gt;IKKab</title>
<path fill="none" stroke="black" d="M253.674,-359.697C246.241,-351.305 237.177,-341.07 229.02,-331.861"/>
<polygon fill="black" stroke="black" points="231.4,-329.27 222.15,-324.104 226.16,-333.911 231.4,-329.27"/>
</g>
<!-- Ikb -->
<g id="node37" class="node"><title>Ikb</title>
<polygon fill="none" stroke="black" stroke-width="2" stroke-dasharray="5,2" points="234,-252 180,-252 180,-216 234,-216 234,-252"/>
<text text-anchor="middle" x="207" y="-230.3" font-family="bold" font-size="14.00">Ikb</text>
</g>
<!-- IKKab&#45;&gt;Ikb -->
<g id="edge46" class="edge"><title>IKKab&#45;&gt;Ikb</title>
<path fill="none" stroke="red" d="M207,-287.697C207,-278.457 207,-266.984 207,-257.105"/>
<polygon fill="red" stroke="red" points="202,-253.104 212,-253.104 212,-255.104 202,-255.104 202,-253.104"/>
<polyline fill="none" stroke="red" points="207,-252.104 207,-257.104 "/>
</g>
<!-- Ras -->
<g id="node22" class="node"><title>Ras</title>
<polygon fill="none" stroke="black" stroke-width="2" stroke-dasharray="5,2" points="71,-252 17,-252 17,-216 71,-216 71,-252"/>
<text text-anchor="middle" x="44" y="-230.3" font-family="bold" font-size="14.00">Ras</text>
</g>
<!-- Grb2Sos&#45;&gt;Ras -->
<g id="edge20" class="edge"><title>Grb2Sos&#45;&gt;Ras</title>
<path fill="none" stroke="black" d="M41.7416,-287.697C42.0722,-279.983 42.4695,-270.712 42.838,-262.112"/>
<polygon fill="black" stroke="black" points="46.3355,-262.245 43.267,-252.104 39.3419,-261.945 46.3355,-262.245"/>
</g>
<!-- Ras&#45;&gt;Raf -->
<g id="edge44" class="edge"><title>Ras&#45;&gt;Raf</title>
<path fill="none" stroke="black" d="M45.236,-215.697C45.7869,-207.983 46.4491,-198.712 47.0634,-190.112"/>
<polygon fill="black" stroke="black" points="50.5568,-190.328 47.7783,-180.104 43.5746,-189.83 50.5568,-190.328"/>
</g>
<!-- PI3K&#45;&gt;IKKab -->
<g id="edge24" class="edge"><title>PI3K&#45;&gt;IKKab</title>
<path fill="none" stroke="black" d="M132.973,-359.876C145.55,-350.893 161.132,-339.763 174.752,-330.034"/>
<polygon fill="black" stroke="black" points="176.831,-332.85 182.934,-324.19 172.763,-327.154 176.831,-332.85"/>
</g>
<!-- AKT -->
<g id="node25" class="node"><title>AKT</title>
<polygon fill="lightblue" stroke="black" stroke-width="2" points="155,-324 101,-324 101,-288 155,-288 155,-324"/>
<text text-anchor="middle" x="128" y="-302.3" font-family="bold" font-size="14.00">AKT</text>
</g>
<!-- PI3K&#45;&gt;AKT -->
<g id="edge22" class="edge"><title>PI3K&#45;&gt;AKT</title>
<path fill="none" stroke="black" d="M113.697,-359.697C115.813,-351.898 118.362,-342.509 120.718,-333.829"/>
<polygon fill="black" stroke="black" points="124.116,-334.672 123.357,-324.104 117.36,-332.838 124.116,-334.672"/>
</g>
<!-- GSK3 -->
<g id="node35" class="node"><title>GSK3</title>
<polygon fill="gray" stroke="black" stroke-width="2" points="158.25,-180 97.75,-180 97.75,-144 158.25,-144 158.25,-180"/>
<polyline fill="none" stroke="black" stroke-width="2" points="109.75,-180 97.75,-168 "/>
<polyline fill="none" stroke="black" stroke-width="2" points="97.75,-156 109.75,-144 "/>
<polyline fill="none" stroke="black" stroke-width="2" points="146.25,-144 158.25,-156 "/>
<polyline fill="none" stroke="black" stroke-width="2" points="158.25,-168 146.25,-180 "/>
<text text-anchor="middle" x="128" y="-158.3" font-family="bold" font-size="14.00">GSK3</text>
</g>
<!-- AKT&#45;&gt;GSK3 -->
<g id="edge36" class="edge"><title>AKT&#45;&gt;GSK3</title>
<path fill="none" stroke="red" d="M128,-287.871C128,-262.178 128,-213.65 128,-185.248"/>
<polygon fill="red" stroke="red" points="123,-181.189 133,-181.189 133,-183.189 123,-183.189 123,-181.189"/>
<polyline fill="none" stroke="red" points="128,-180.189 128,-185.189 "/>
</g>
<!-- NFkB -->
<g id="node28" class="node"><title>NFkB</title>
<polygon fill="lightblue" stroke="black" stroke-width="2" points="237.25,-180 176.75,-180 176.75,-144 237.25,-144 237.25,-180"/>
<text text-anchor="middle" x="207" y="-158.3" font-family="bold" font-size="14.00">NFkB</text>
</g>
<!-- NFkB&#45;&gt;MEK -->
<g id="edge26" class="edge"><title>NFkB&#45;&gt;MEK</title>
<path fill="none" stroke="black" d="M207,-143.697C207,-135.983 207,-126.712 207,-118.112"/>
<polygon fill="black" stroke="black" points="210.5,-118.104 207,-108.104 203.5,-118.104 210.5,-118.104"/>
</g>
<!-- Shc&#45;&gt;Grb2Sos -->
<g id="edge40" class="edge"><title>Shc&#45;&gt;Grb2Sos</title>
<path fill="none" stroke="black" d="M154.814,-363.503C134.909,-353.622 107.483,-340.006 84.5418,-328.616"/>
<polygon fill="black" stroke="black" points="85.8593,-325.363 75.346,-324.051 82.7465,-331.633 85.8593,-325.363"/>
</g>
<!-- Ikb&#45;&gt;NFkB -->
<g id="edge38" class="edge"><title>Ikb&#45;&gt;NFkB</title>
<path fill="none" stroke="red" d="M207,-215.697C207,-206.457 207,-194.984 207,-185.105"/>
<polygon fill="red" stroke="red" points="202,-181.104 212,-181.104 212,-183.104 202,-183.104 202,-181.104"/>
<polyline fill="none" stroke="red" points="207,-180.104 207,-185.104 "/>
</g>
</g>
</svg>
