<?xml version="1.0" encoding="UTF-8" standalone="no"?>
<!DOCTYPE svg PUBLIC "-//W3C//DTD SVG 1.1//EN"
 "http://www.w3.org/Graphics/SVG/1.1/DTD/svg11.dtd">
<!-- Generated by graphviz version 2.28.0 (20120228.1928)
 -->
<!-- Title: _anonymous_0 Pages: 1 -->
<svg width="365pt" height="720pt"
 viewBox="0.00 0.00 365.08 720.00" xmlns="http://www.w3.org/2000/svg" xmlns:xlink="http://www.w3.org/1999/xlink">
<g id="graph1" class="graph" transform="scale(0.640569 0.640569) rotate(0) translate(4 1120)">
<title>_anonymous_0</title>
<polygon fill="white" stroke="white" points="-4,5 -4,-1120 566.927,-1120 566.927,5 -4,5"/>
<!-- ikb -->
<g id="node2" class="node"><title>ikb</title>
<polygon fill="lightblue" stroke="black" stroke-width="2" points="379,-36 325,-36 325,-0 379,-0 379,-36"/>
<text text-anchor="middle" x="352" y="-14.3" font-family="bold" font-size="14.00">ikb</text>
</g>
<!-- jnk12 -->
<g id="node3" class="node"><title>jnk12</title>
<polygon fill="lightblue" stroke="black" stroke-width="2" points="460.5,-36 399.5,-36 399.5,-0 460.5,-0 460.5,-36"/>
<text text-anchor="middle" x="430" y="-14.3" font-family="bold" font-size="14.00">jnk12</text>
</g>
<!-- ikb&#45;&gt;jnk12 -->
<!-- hsp27 -->
<g id="node5" class="node"><title>hsp27</title>
<polygon fill="lightblue" stroke="black" stroke-width="2" points="236.25,-36 171.75,-36 171.75,-0 236.25,-0 236.25,-36"/>
<text text-anchor="middle" x="204" y="-14.3" font-family="bold" font-size="14.00">hsp27</text>
</g>
<!-- hsp27&#45;&gt;ikb -->
<!-- igf1 -->
<g id="node8" class="node"><title>igf1</title>
<polygon fill="#9acd32" stroke="black" stroke-width="2" points="69,-1116 15,-1116 15,-1080 69,-1080 69,-1116"/>
<text text-anchor="middle" x="42" y="-1094.3" font-family="bold" font-size="14.00">igf1</text>
</g>
<!-- il1a -->
<g id="node9" class="node"><title>il1a</title>
<polygon fill="#9acd32" stroke="black" stroke-width="2" points="141,-1116 87,-1116 87,-1080 141,-1080 141,-1116"/>
<text text-anchor="middle" x="114" y="-1094.3" font-family="bold" font-size="14.00">il1a</text>
</g>
<!-- igf1&#45;&gt;il1a -->
<!-- igfr -->
<g id="node37" class="node"><title>igfr</title>
<polygon fill="none" stroke="black" stroke-width="2" stroke-dasharray="5,2" points="73,-1044 19,-1044 19,-1008 73,-1008 73,-1044"/>
<text text-anchor="middle" x="46" y="-1022.3" font-family="bold" font-size="14.00">igfr</text>
</g>
<!-- igf1&#45;&gt;igfr -->
<g id="edge34" class="edge"><title>igf1&#45;&gt;igfr</title>
<path fill="none" stroke="black" d="M42.9888,-1079.7C43.4296,-1071.98 43.9593,-1062.71 44.4507,-1054.11"/>
<polygon fill="black" stroke="black" points="47.9463,-1054.29 45.0226,-1044.1 40.9577,-1053.89 47.9463,-1054.29"/>
</g>
<!-- tgfa -->
<g id="node12" class="node"><title>tgfa</title>
<polygon fill="#9acd32" stroke="black" stroke-width="2" points="221,-1116 167,-1116 167,-1080 221,-1080 221,-1116"/>
<text text-anchor="middle" x="194" y="-1094.3" font-family="bold" font-size="14.00">tgfa</text>
</g>
<!-- il1a&#45;&gt;tgfa -->
<!-- il1r -->
<g id="node78" class="node"><title>il1r</title>
<polygon fill="none" stroke="black" stroke-width="2" stroke-dasharray="5,2" points="128,-972 74,-972 74,-936 128,-936 128,-972"/>
<text text-anchor="middle" x="101" y="-950.3" font-family="bold" font-size="14.00">il1r</text>
</g>
<!-- il1a&#45;&gt;il1r -->
<g id="edge110" class="edge"><title>il1a&#45;&gt;il1r</title>
<path fill="none" stroke="black" d="M112.432,-1079.87C110.216,-1055.67 106.146,-1011.21 103.508,-982.393"/>
<polygon fill="black" stroke="black" points="106.971,-981.829 102.574,-972.189 100,-982.467 106.971,-981.829"/>
</g>
<!-- tnfa -->
<g id="node11" class="node"><title>tnfa</title>
<polygon fill="#9acd32" stroke="black" stroke-width="2" points="331,-1116 277,-1116 277,-1080 331,-1080 331,-1116"/>
<text text-anchor="middle" x="304" y="-1094.3" font-family="bold" font-size="14.00">tnfa</text>
</g>
<!-- tnfr -->
<g id="node41" class="node"><title>tnfr</title>
<polygon fill="none" stroke="black" stroke-width="2" stroke-dasharray="5,2" points="310,-756 256,-756 256,-720 310,-720 310,-756"/>
<text text-anchor="middle" x="283" y="-734.3" font-family="bold" font-size="14.00">tnfr</text>
</g>
<!-- tnfa&#45;&gt;tnfr -->
<g id="edge38" class="edge"><title>tnfa&#45;&gt;tnfr</title>
<path fill="none" stroke="black" d="M304,-1079.95C304,-1053.29 304,-1000.11 304,-955 304,-955 304,-955 304,-881 304,-840.782 295.654,-794.839 289.485,-766.372"/>
<polygon fill="black" stroke="black" points="292.846,-765.362 287.25,-756.366 286.015,-766.889 292.846,-765.362"/>
</g>
<!-- tgfa&#45;&gt;tnfa -->
<!-- egfr -->
<g id="node20" class="node"><title>egfr</title>
<polygon fill="none" stroke="black" stroke-width="2" stroke-dasharray="5,2" points="221,-1044 167,-1044 167,-1008 221,-1008 221,-1044"/>
<text text-anchor="middle" x="194" y="-1022.3" font-family="bold" font-size="14.00">egfr</text>
</g>
<!-- tgfa&#45;&gt;egfr -->
<g id="edge70" class="edge"><title>tgfa&#45;&gt;egfr</title>
<path fill="none" stroke="black" d="M194,-1079.7C194,-1071.98 194,-1062.71 194,-1054.11"/>
<polygon fill="black" stroke="black" points="197.5,-1054.1 194,-1044.1 190.5,-1054.1 197.5,-1054.1"/>
</g>
<!-- rac -->
<g id="node15" class="node"><title>rac</title>
<polygon fill="none" stroke="black" stroke-width="2" stroke-dasharray="5,2" points="54,-468 0,-468 0,-432 54,-432 54,-468"/>
<text text-anchor="middle" x="27" y="-446.3" font-family="bold" font-size="14.00">rac</text>
</g>
<!-- pak -->
<g id="node16" class="node"><title>pak</title>
<polygon fill="white" stroke="black" stroke-width="2" points="62,-396 8,-396 8,-360 62,-360 62,-396"/>
<text text-anchor="middle" x="35" y="-374.3" font-family="bold" font-size="14.00">pak</text>
</g>
<!-- rac&#45;&gt;pak -->
<g id="edge14" class="edge"><title>rac&#45;&gt;pak</title>
<path fill="none" stroke="black" d="M28.9775,-431.697C29.8591,-423.983 30.9186,-414.712 31.9014,-406.112"/>
<polygon fill="black" stroke="black" points="35.387,-406.437 33.0452,-396.104 28.4323,-405.642 35.387,-406.437"/>
</g>
<!-- map3k1 -->
<g id="node18" class="node"><title>map3k1</title>
<polygon fill="white" stroke="black" stroke-width="2" points="478,-396 398,-396 398,-360 478,-360 478,-396"/>
<text text-anchor="middle" x="438" y="-374.3" font-family="bold" font-size="14.00">map3k1</text>
</g>
<!-- rac&#45;&gt;map3k1 -->
<g id="edge16" class="edge"><title>rac&#45;&gt;map3k1</title>
<path fill="none" stroke="black" d="M54.1544,-435.037C57.0896,-433.873 60.0736,-432.828 63,-432 200.119,-393.226 244.802,-426.522 387.815,-395.947"/>
<polygon fill="black" stroke="black" points="388.82,-399.309 397.831,-393.736 387.312,-392.474 388.82,-399.309"/>
</g>
<!-- raf1 -->
<g id="node35" class="node"><title>raf1</title>
<polygon fill="none" stroke="black" stroke-width="2" stroke-dasharray="5,2" points="118,-324 64,-324 64,-288 118,-288 118,-324"/>
<text text-anchor="middle" x="91" y="-302.3" font-family="bold" font-size="14.00">raf1</text>
</g>
<!-- pak&#45;&gt;raf1 -->
<g id="edge46" class="edge"><title>pak&#45;&gt;raf1</title>
<path fill="none" stroke="black" d="M48.8427,-359.697C55.4885,-351.389 63.5784,-341.277 70.8874,-332.141"/>
<polygon fill="black" stroke="black" points="73.8026,-334.099 77.3165,-324.104 68.3365,-329.727 73.8026,-334.099"/>
</g>
<!-- ikk -->
<g id="node51" class="node"><title>ikk</title>
<polygon fill="orangered" stroke="black" stroke-width="2" points="396,-252 342,-252 342,-216 396,-216 396,-252"/>
<text text-anchor="middle" x="369" y="-230.3" font-family="bold" font-size="14.00">ikk</text>
</g>
<!-- map3k1&#45;&gt;ikk -->
<g id="edge88" class="edge"><title>map3k1&#45;&gt;ikk</title>
<path fill="none" stroke="black" d="M478.164,-370.304C504.915,-363.533 538.142,-350.144 555,-324 563.671,-310.553 564.64,-300.77 555,-288 537.105,-264.294 455.112,-248.041 406.161,-240.262"/>
<polygon fill="black" stroke="black" points="406.669,-236.799 396.252,-238.731 405.6,-243.717 406.669,-236.799"/>
</g>
<!-- mkk4 -->
<g id="node70" class="node"><title>mkk4</title>
<polygon fill="white" stroke="black" stroke-width="2" points="236.25,-324 175.75,-324 175.75,-288 236.25,-288 236.25,-324"/>
<text text-anchor="middle" x="206" y="-302.3" font-family="bold" font-size="14.00">mkk4</text>
</g>
<!-- map3k1&#45;&gt;mkk4 -->
<g id="edge84" class="edge"><title>map3k1&#45;&gt;mkk4</title>
<path fill="none" stroke="black" d="M397.983,-362.791C394.953,-361.815 391.934,-360.874 389,-360 328.738,-342.053 309.269,-344.921 246.113,-324.101"/>
<polygon fill="black" stroke="black" points="247.062,-320.727 236.468,-320.852 244.827,-327.361 247.062,-320.727"/>
</g>
<!-- mkk7 -->
<g id="node72" class="node"><title>mkk7</title>
<polygon fill="none" stroke="black" stroke-width="2" stroke-dasharray="5,2" points="467.25,-324 406.75,-324 406.75,-288 467.25,-288 467.25,-324"/>
<text text-anchor="middle" x="437" y="-302.3" font-family="bold" font-size="14.00">mkk7</text>
</g>
<!-- map3k1&#45;&gt;mkk7 -->
<g id="edge86" class="edge"><title>map3k1&#45;&gt;mkk7</title>
<path fill="none" stroke="black" d="M437.753,-359.697C437.643,-351.983 437.51,-342.712 437.387,-334.112"/>
<polygon fill="black" stroke="black" points="440.887,-334.053 437.244,-324.104 433.888,-334.153 440.887,-334.053"/>
</g>
<!-- pi3k -->
<g id="node21" class="node"><title>pi3k</title>
<polygon fill="orangered" stroke="black" stroke-width="2" points="162,-684 108,-684 108,-648 162,-648 162,-684"/>
<text text-anchor="middle" x="135" y="-662.3" font-family="bold" font-size="14.00">pi3k</text>
</g>
<!-- egfr&#45;&gt;pi3k -->
<g id="edge18" class="edge"><title>egfr&#45;&gt;pi3k</title>
<path fill="none" stroke="black" d="M186.31,-1007.91C175.206,-981.623 156,-929.447 156,-883 156,-883 156,-883 156,-809 156,-768.782 147.654,-722.839 141.485,-694.372"/>
<polygon fill="black" stroke="black" points="144.846,-693.362 139.25,-684.366 138.015,-694.889 144.846,-693.362"/>
</g>
<!-- grb2 -->
<g id="node23" class="node"><title>grb2</title>
<polygon fill="none" stroke="black" stroke-width="2" stroke-dasharray="5,2" points="238,-900 184,-900 184,-864 238,-864 238,-900"/>
<text text-anchor="middle" x="211" y="-878.3" font-family="bold" font-size="14.00">grb2</text>
</g>
<!-- egfr&#45;&gt;grb2 -->
<g id="edge20" class="edge"><title>egfr&#45;&gt;grb2</title>
<path fill="none" stroke="black" d="M196.051,-1007.87C198.948,-983.67 204.271,-939.211 207.721,-910.393"/>
<polygon fill="black" stroke="black" points="211.229,-910.534 208.942,-900.189 204.278,-909.702 211.229,-910.534"/>
</g>
<!-- shc -->
<g id="node25" class="node"><title>shc</title>
<polygon fill="none" stroke="black" stroke-width="2" stroke-dasharray="5,2" points="276,-972 222,-972 222,-936 276,-936 276,-972"/>
<text text-anchor="middle" x="249" y="-950.3" font-family="bold" font-size="14.00">shc</text>
</g>
<!-- egfr&#45;&gt;shc -->
<g id="edge22" class="edge"><title>egfr&#45;&gt;shc</title>
<path fill="none" stroke="black" d="M207.596,-1007.7C214.123,-999.389 222.068,-989.277 229.247,-980.141"/>
<polygon fill="black" stroke="black" points="232.135,-982.13 235.561,-972.104 226.631,-977.805 232.135,-982.13"/>
</g>
<!-- pi3k&#45;&gt;rac -->
<g id="edge78" class="edge"><title>pi3k&#45;&gt;rac</title>
<path fill="none" stroke="black" d="M107.741,-656.253C87.2298,-648.167 60.2917,-634.026 46,-612 19.5962,-571.308 20.1326,-512.434 23.3025,-478.303"/>
<polygon fill="black" stroke="black" points="26.8055,-478.462 24.3934,-468.146 19.8455,-477.715 26.8055,-478.462"/>
</g>
<!-- pip3 -->
<g id="node39" class="node"><title>pip3</title>
<polygon fill="none" stroke="black" stroke-width="2" stroke-dasharray="5,2" points="109,-612 55,-612 55,-576 109,-576 109,-612"/>
<text text-anchor="middle" x="82" y="-590.3" font-family="bold" font-size="14.00">pip3</text>
</g>
<!-- pi3k&#45;&gt;pip3 -->
<g id="edge80" class="edge"><title>pi3k&#45;&gt;pip3</title>
<path fill="none" stroke="black" d="M121.899,-647.697C115.609,-639.389 107.953,-629.277 101.035,-620.141"/>
<polygon fill="black" stroke="black" points="103.777,-617.964 94.9504,-612.104 98.1964,-622.19 103.777,-617.964"/>
</g>
<!-- sos -->
<g id="node30" class="node"><title>sos</title>
<polygon fill="none" stroke="black" stroke-width="2" stroke-dasharray="5,2" points="238,-828 184,-828 184,-792 238,-792 238,-828"/>
<text text-anchor="middle" x="211" y="-806.3" font-family="bold" font-size="14.00">sos</text>
</g>
<!-- grb2&#45;&gt;sos -->
<g id="edge62" class="edge"><title>grb2&#45;&gt;sos</title>
<path fill="none" stroke="black" d="M211,-863.697C211,-855.983 211,-846.712 211,-838.112"/>
<polygon fill="black" stroke="black" points="214.5,-838.104 211,-828.104 207.5,-838.104 214.5,-838.104"/>
</g>
<!-- shc&#45;&gt;grb2 -->
<g id="edge106" class="edge"><title>shc&#45;&gt;grb2</title>
<path fill="none" stroke="black" d="M239.607,-935.697C235.235,-927.644 229.943,-917.894 225.105,-908.982"/>
<polygon fill="black" stroke="black" points="228.132,-907.223 220.285,-900.104 221.98,-910.563 228.132,-907.223"/>
</g>
<!-- pdk1 -->
<g id="node27" class="node"><title>pdk1</title>
<polygon fill="none" stroke="black" stroke-width="2" stroke-dasharray="5,2" points="126.25,-540 69.75,-540 69.75,-504 126.25,-504 126.25,-540"/>
<text text-anchor="middle" x="98" y="-518.3" font-family="bold" font-size="14.00">pdk1</text>
</g>
<!-- akt -->
<g id="node28" class="node"><title>akt</title>
<polygon fill="lightblue" stroke="black" stroke-width="2" points="126,-468 72,-468 72,-432 126,-432 126,-468"/>
<text text-anchor="middle" x="99" y="-446.3" font-family="bold" font-size="14.00">akt</text>
</g>
<!-- pdk1&#45;&gt;akt -->
<g id="edge24" class="edge"><title>pdk1&#45;&gt;akt</title>
<path fill="none" stroke="black" d="M98.2472,-503.697C98.3574,-495.983 98.4898,-486.712 98.6127,-478.112"/>
<polygon fill="black" stroke="black" points="102.112,-478.153 98.7557,-468.104 95.1131,-478.053 102.112,-478.153"/>
</g>
<!-- akt&#45;&gt;pak -->
<g id="edge100" class="edge"><title>akt&#45;&gt;pak</title>
<path fill="none" stroke="red" d="M83.1798,-431.697C74.422,-422.118 63.4701,-410.139 54.222,-400.024"/>
<polygon fill="red" stroke="red" points="47.6229,-400.216 55.0032,-393.468 56.3527,-394.945 48.9724,-401.692 47.6229,-400.216"/>
<polyline fill="none" stroke="red" points="50.6382,-396.104 54.0121,-399.795 "/>
</g>
<!-- akt&#45;&gt;raf1 -->
<g id="edge102" class="edge"><title>akt&#45;&gt;raf1</title>
<path fill="none" stroke="red" d="M98.035,-431.871C96.5875,-406.178 93.8535,-357.65 92.2534,-329.248"/>
<polygon fill="red" stroke="red" points="87.0326,-325.469 97.0168,-324.906 97.1293,-326.903 87.1451,-327.466 87.0326,-325.469"/>
<polyline fill="none" stroke="red" points="91.9684,-324.189 92.2497,-329.181 "/>
</g>
<!-- cot -->
<g id="node74" class="node"><title>cot</title>
<polygon fill="none" stroke="black" stroke-width="2" stroke-dasharray="5,2" points="210,-396 156,-396 156,-360 210,-360 210,-396"/>
<text text-anchor="middle" x="183" y="-374.3" font-family="bold" font-size="14.00">cot</text>
</g>
<!-- akt&#45;&gt;cot -->
<g id="edge104" class="edge"><title>akt&#45;&gt;cot</title>
<path fill="none" stroke="black" d="M119.764,-431.697C130.241,-422.965 143.111,-412.24 154.5,-402.75"/>
<polygon fill="black" stroke="black" points="157.033,-405.195 162.475,-396.104 152.552,-399.817 157.033,-405.195"/>
</g>
<!-- ras -->
<g id="node31" class="node"><title>ras</title>
<polygon fill="none" stroke="black" stroke-width="2" stroke-dasharray="5,2" points="238,-756 184,-756 184,-720 238,-720 238,-756"/>
<text text-anchor="middle" x="211" y="-734.3" font-family="bold" font-size="14.00">ras</text>
</g>
<!-- sos&#45;&gt;ras -->
<g id="edge26" class="edge"><title>sos&#45;&gt;ras</title>
<path fill="none" stroke="black" d="M211,-791.697C211,-783.983 211,-774.712 211,-766.112"/>
<polygon fill="black" stroke="black" points="214.5,-766.104 211,-756.104 207.5,-766.104 214.5,-766.104"/>
</g>
<!-- ras&#45;&gt;map3k1 -->
<g id="edge30" class="edge"><title>ras&#45;&gt;map3k1</title>
<path fill="none" stroke="black" d="M225.491,-719.828C253.223,-686.505 314.873,-610.166 358,-540 385.845,-494.696 412.061,-438.383 426.483,-405.781"/>
<polygon fill="black" stroke="black" points="429.758,-407.026 430.569,-396.463 423.348,-404.215 429.758,-407.026"/>
</g>
<!-- ras&#45;&gt;pi3k -->
<g id="edge28" class="edge"><title>ras&#45;&gt;pi3k</title>
<path fill="none" stroke="black" d="M192.213,-719.697C182.826,-711.05 171.316,-700.449 161.087,-691.027"/>
<polygon fill="black" stroke="black" points="163.297,-688.305 153.57,-684.104 158.555,-693.454 163.297,-688.305"/>
</g>
<!-- ras&#45;&gt;raf1 -->
<g id="edge32" class="edge"><title>ras&#45;&gt;raf1</title>
<path fill="none" stroke="black" d="M207.352,-719.985C197.254,-673.478 167.524,-540.462 135,-432 124.72,-397.718 110.686,-358.941 101.256,-333.792"/>
<polygon fill="black" stroke="black" points="104.449,-332.34 97.6427,-324.221 97.9003,-334.813 104.449,-332.34"/>
</g>
<!-- mek12 -->
<g id="node94" class="node"><title>mek12</title>
<polygon fill="lightblue" stroke="red" stroke-width="2" points="139,-252 69,-252 69,-216 139,-216 139,-252"/>
<polyline fill="none" stroke="red" stroke-width="2" points="81,-252 69,-240 "/>
<polyline fill="none" stroke="red" stroke-width="2" points="69,-228 81,-216 "/>
<polyline fill="none" stroke="red" stroke-width="2" points="127,-216 139,-228 "/>
<polyline fill="none" stroke="red" stroke-width="2" points="139,-240 127,-252 "/>
<text text-anchor="middle" x="104" y="-230.3" font-family="bold" font-size="14.00">mek12</text>
</g>
<!-- raf1&#45;&gt;mek12 -->
<g id="edge120" class="edge"><title>raf1&#45;&gt;mek12</title>
<path fill="none" stroke="black" d="M94.2135,-287.697C95.6461,-279.983 97.3677,-270.712 98.9648,-262.112"/>
<polygon fill="black" stroke="black" points="102.439,-262.575 100.823,-252.104 95.5563,-261.297 102.439,-262.575"/>
</g>
<!-- igfr&#45;&gt;shc -->
<g id="edge68" class="edge"><title>igfr&#45;&gt;shc</title>
<path fill="none" stroke="black" d="M73.3775,-1015.56C109.194,-1003.21 172.087,-981.522 212.087,-967.729"/>
<polygon fill="black" stroke="black" points="213.42,-970.971 221.733,-964.402 211.138,-964.354 213.42,-970.971"/>
</g>
<!-- irs1 -->
<g id="node61" class="node"><title>irs1</title>
<polygon fill="none" stroke="black" stroke-width="2" stroke-dasharray="5,2" points="73,-900 19,-900 19,-864 73,-864 73,-900"/>
<text text-anchor="middle" x="46" y="-878.3" font-family="bold" font-size="14.00">irs1</text>
</g>
<!-- igfr&#45;&gt;irs1 -->
<g id="edge66" class="edge"><title>igfr&#45;&gt;irs1</title>
<path fill="none" stroke="black" d="M46,-1007.87C46,-983.67 46,-939.211 46,-910.393"/>
<polygon fill="black" stroke="black" points="49.5001,-910.189 46,-900.189 42.5001,-910.189 49.5001,-910.189"/>
</g>
<!-- pip3&#45;&gt;pdk1 -->
<g id="edge36" class="edge"><title>pip3&#45;&gt;pdk1</title>
<path fill="none" stroke="black" d="M85.9551,-575.697C87.7182,-567.983 89.8372,-558.712 91.8029,-550.112"/>
<polygon fill="black" stroke="black" points="95.2741,-550.633 94.0904,-540.104 88.4501,-549.073 95.2741,-550.633"/>
</g>
<!-- tnfr&#45;&gt;pi3k -->
<g id="edge116" class="edge"><title>tnfr&#45;&gt;pi3k</title>
<path fill="none" stroke="black" d="M255.855,-724.161C232.146,-712.947 197.536,-696.578 171.424,-684.227"/>
<polygon fill="black" stroke="black" points="172.76,-680.988 162.224,-679.876 169.767,-687.316 172.76,-680.988"/>
</g>
<!-- traf2 -->
<g id="node53" class="node"><title>traf2</title>
<polygon fill="none" stroke="black" stroke-width="2" stroke-dasharray="5,2" points="266.5,-468 211.5,-468 211.5,-432 266.5,-432 266.5,-468"/>
<text text-anchor="middle" x="239" y="-446.3" font-family="bold" font-size="14.00">traf2</text>
</g>
<!-- tnfr&#45;&gt;traf2 -->
<g id="edge118" class="edge"><title>tnfr&#45;&gt;traf2</title>
<path fill="none" stroke="black" d="M280.379,-719.966C273.03,-672.192 252.173,-536.623 243.195,-478.266"/>
<polygon fill="black" stroke="black" points="246.642,-477.658 241.663,-468.306 239.724,-478.722 246.642,-477.658"/>
</g>
<!-- sitpec -->
<g id="node43" class="node"><title>sitpec</title>
<polygon fill="none" stroke="black" stroke-width="2" stroke-dasharray="5,2" points="350.25,-468 285.75,-468 285.75,-432 350.25,-432 350.25,-468"/>
<text text-anchor="middle" x="318" y="-446.3" font-family="bold" font-size="14.00">sitpec</text>
</g>
<!-- sitpec&#45;&gt;map3k1 -->
<g id="edge40" class="edge"><title>sitpec&#45;&gt;map3k1</title>
<path fill="none" stroke="black" d="M347.355,-431.876C363.045,-422.724 382.557,-411.342 399.454,-401.485"/>
<polygon fill="black" stroke="black" points="401.658,-404.252 408.532,-396.19 398.13,-398.205 401.658,-404.252"/>
</g>
<!-- erk12 -->
<g id="node45" class="node"><title>erk12</title>
<polygon fill="lightblue" stroke="black" stroke-width="2" points="149.5,-180 88.5,-180 88.5,-144 149.5,-144 149.5,-180"/>
<text text-anchor="middle" x="119" y="-158.3" font-family="bold" font-size="14.00">erk12</text>
</g>
<!-- prak -->
<g id="node46" class="node"><title>prak</title>
<polygon fill="none" stroke="black" stroke-width="2" stroke-dasharray="5,2" points="231,-108 177,-108 177,-72 231,-72 231,-108"/>
<text text-anchor="middle" x="204" y="-86.3" font-family="bold" font-size="14.00">prak</text>
</g>
<!-- erk12&#45;&gt;prak -->
<g id="edge42" class="edge"><title>erk12&#45;&gt;prak</title>
<path fill="none" stroke="black" d="M140.011,-143.697C150.716,-134.881 163.89,-124.032 175.496,-114.474"/>
<polygon fill="black" stroke="black" points="177.736,-117.163 183.23,-108.104 173.286,-111.76 177.736,-117.163"/>
</g>
<!-- prak&#45;&gt;hsp27 -->
<g id="edge44" class="edge"><title>prak&#45;&gt;hsp27</title>
<path fill="none" stroke="black" d="M204,-71.6966C204,-63.9827 204,-54.7125 204,-46.1124"/>
<polygon fill="black" stroke="black" points="207.5,-46.1043 204,-36.1043 200.5,-46.1044 207.5,-46.1043"/>
</g>
<!-- nik -->
<g id="node50" class="node"><title>nik</title>
<polygon fill="none" stroke="black" stroke-width="2" stroke-dasharray="5,2" points="388,-324 334,-324 334,-288 388,-288 388,-324"/>
<text text-anchor="middle" x="361" y="-302.3" font-family="bold" font-size="14.00">nik</text>
</g>
<!-- nik&#45;&gt;ikk -->
<g id="edge48" class="edge"><title>nik&#45;&gt;ikk</title>
<path fill="none" stroke="black" d="M362.978,-287.697C363.859,-279.983 364.919,-270.712 365.901,-262.112"/>
<polygon fill="black" stroke="black" points="369.387,-262.437 367.045,-252.104 362.432,-261.642 369.387,-262.437"/>
</g>
<!-- ikk&#45;&gt;ikb -->
<g id="edge64" class="edge"><title>ikk&#45;&gt;ikb</title>
<path fill="none" stroke="black" d="M367.638,-215.849C364.697,-178.832 357.734,-91.1809 354.176,-46.3863"/>
<polygon fill="black" stroke="black" points="357.65,-45.9239 353.369,-36.2325 350.672,-46.4782 357.65,-45.9239"/>
</g>
<!-- ask1 -->
<g id="node54" class="node"><title>ask1</title>
<polygon fill="none" stroke="black" stroke-width="2" stroke-dasharray="5,2" points="282,-396 228,-396 228,-360 282,-360 282,-396"/>
<text text-anchor="middle" x="255" y="-374.3" font-family="bold" font-size="14.00">ask1</text>
</g>
<!-- traf2&#45;&gt;ask1 -->
<g id="edge50" class="edge"><title>traf2&#45;&gt;ask1</title>
<path fill="none" stroke="black" d="M242.955,-431.697C244.718,-423.983 246.837,-414.712 248.803,-406.112"/>
<polygon fill="black" stroke="black" points="252.274,-406.633 251.09,-396.104 245.45,-405.073 252.274,-406.633"/>
</g>
<!-- map3k7 -->
<g id="node56" class="node"><title>map3k7</title>
<polygon fill="white" stroke="black" stroke-width="2" points="380,-396 300,-396 300,-360 380,-360 380,-396"/>
<text text-anchor="middle" x="340" y="-374.3" font-family="bold" font-size="14.00">map3k7</text>
</g>
<!-- traf2&#45;&gt;map3k7 -->
<g id="edge52" class="edge"><title>traf2&#45;&gt;map3k7</title>
<path fill="none" stroke="black" d="M263.707,-431.876C276.669,-422.893 292.728,-411.763 306.765,-402.034"/>
<polygon fill="black" stroke="black" points="308.972,-404.763 315.198,-396.19 304.985,-399.009 308.972,-404.763"/>
</g>
<!-- ask1&#45;&gt;mkk4 -->
<g id="edge72" class="edge"><title>ask1&#45;&gt;mkk4</title>
<path fill="none" stroke="black" d="M242.888,-359.697C237.132,-351.474 230.138,-341.483 223.794,-332.421"/>
<polygon fill="black" stroke="black" points="226.575,-330.29 217.973,-324.104 220.84,-334.304 226.575,-330.29"/>
</g>
<!-- ask1&#45;&gt;mkk7 -->
<g id="edge74" class="edge"><title>ask1&#45;&gt;mkk7</title>
<path fill="none" stroke="black" d="M282.375,-363.68C285.267,-362.391 288.181,-361.14 291,-360 337.125,-341.347 350.517,-341.743 397,-324 397.097,-323.963 397.194,-323.926 397.291,-323.889"/>
<polygon fill="black" stroke="black" points="398.514,-327.169 406.52,-320.23 395.934,-320.662 398.514,-327.169"/>
</g>
<!-- map3k7&#45;&gt;nik -->
<g id="edge94" class="edge"><title>map3k7&#45;&gt;nik</title>
<path fill="none" stroke="black" d="M345.191,-359.697C347.531,-351.898 350.347,-342.509 352.951,-333.829"/>
<polygon fill="black" stroke="black" points="356.348,-334.688 355.869,-324.104 349.643,-332.677 356.348,-334.688"/>
</g>
<!-- map3k7&#45;&gt;mkk4 -->
<g id="edge90" class="edge"><title>map3k7&#45;&gt;mkk4</title>
<path fill="none" stroke="black" d="M307.22,-359.876C288.625,-350.162 265.223,-337.937 245.606,-327.69"/>
<polygon fill="black" stroke="black" points="247.089,-324.515 236.605,-322.987 243.847,-330.72 247.089,-324.515"/>
</g>
<!-- map3k7&#45;&gt;mkk7 -->
<g id="edge96" class="edge"><title>map3k7&#45;&gt;mkk7</title>
<path fill="none" stroke="black" d="M363.978,-359.697C376.311,-350.796 391.516,-339.823 404.853,-330.199"/>
<polygon fill="black" stroke="black" points="407.237,-332.794 413.298,-324.104 403.141,-327.118 407.237,-332.794"/>
</g>
<!-- mkk6 -->
<g id="node84" class="node"><title>mkk6</title>
<polygon fill="none" stroke="black" stroke-width="2" stroke-dasharray="5,2" points="315.25,-324 254.75,-324 254.75,-288 315.25,-288 315.25,-324"/>
<text text-anchor="middle" x="285" y="-302.3" font-family="bold" font-size="14.00">mkk6</text>
</g>
<!-- map3k7&#45;&gt;mkk6 -->
<g id="edge92" class="edge"><title>map3k7&#45;&gt;mkk6</title>
<path fill="none" stroke="black" d="M326.404,-359.697C319.877,-351.389 311.932,-341.277 304.753,-332.141"/>
<polygon fill="black" stroke="black" points="307.369,-329.805 298.439,-324.104 301.865,-334.13 307.369,-329.805"/>
</g>
<!-- mkk3 -->
<g id="node88" class="node"><title>mkk3</title>
<polygon fill="none" stroke="black" stroke-width="2" stroke-dasharray="5,2" points="546.25,-324 485.75,-324 485.75,-288 546.25,-288 546.25,-324"/>
<text text-anchor="middle" x="516" y="-302.3" font-family="bold" font-size="14.00">mkk3</text>
</g>
<!-- map3k7&#45;&gt;mkk3 -->
<g id="edge98" class="edge"><title>map3k7&#45;&gt;mkk3</title>
<path fill="none" stroke="black" d="M380.295,-361.664C407.426,-351.248 443.965,-337.046 476,-324 476.096,-323.961 476.192,-323.922 476.289,-323.882"/>
<polygon fill="black" stroke="black" points="477.56,-327.144 485.465,-320.09 474.886,-320.675 477.56,-327.144"/>
</g>
<!-- traf6 -->
<g id="node58" class="node"><title>traf6</title>
<polygon fill="none" stroke="black" stroke-width="2" stroke-dasharray="5,2" points="349.5,-540 294.5,-540 294.5,-504 349.5,-504 349.5,-540"/>
<text text-anchor="middle" x="322" y="-518.3" font-family="bold" font-size="14.00">traf6</text>
</g>
<!-- traf6&#45;&gt;sitpec -->
<g id="edge54" class="edge"><title>traf6&#45;&gt;sitpec</title>
<path fill="none" stroke="black" d="M321.011,-503.697C320.57,-495.983 320.041,-486.712 319.549,-478.112"/>
<polygon fill="black" stroke="black" points="323.042,-477.888 318.977,-468.104 316.054,-478.288 323.042,-477.888"/>
</g>
<!-- traf6&#45;&gt;map3k7 -->
<g id="edge56" class="edge"><title>traf6&#45;&gt;map3k7</title>
<path fill="none" stroke="black" d="M338.037,-503.846C346.014,-494.124 354.825,-481.274 359,-468 365.48,-447.399 359.623,-423.424 352.757,-405.552"/>
<polygon fill="black" stroke="black" points="355.984,-404.198 348.91,-396.311 349.522,-406.888 355.984,-404.198"/>
</g>
<!-- irs1&#45;&gt;pi3k -->
<g id="edge58" class="edge"><title>irs1&#45;&gt;pi3k</title>
<path fill="none" stroke="black" d="M53.1328,-863.849C68.6256,-826.597 105.444,-738.067 123.963,-693.539"/>
<polygon fill="black" stroke="black" points="127.225,-694.81 127.833,-684.232 120.761,-692.122 127.225,-694.81"/>
</g>
<!-- p38 -->
<g id="node63" class="node"><title>p38</title>
<polygon fill="lightblue" stroke="red" stroke-width="2" points="286,-252 232,-252 232,-216 286,-216 286,-252"/>
<polyline fill="none" stroke="red" stroke-width="2" points="244,-252 232,-240 "/>
<polyline fill="none" stroke="red" stroke-width="2" points="232,-228 244,-216 "/>
<polyline fill="none" stroke="red" stroke-width="2" points="274,-216 286,-228 "/>
<polyline fill="none" stroke="red" stroke-width="2" points="286,-240 274,-252 "/>
<text text-anchor="middle" x="259" y="-230.3" font-family="bold" font-size="14.00">p38</text>
</g>
<!-- p38&#45;&gt;prak -->
<g id="edge60" class="edge"><title>p38&#45;&gt;prak</title>
<path fill="none" stroke="black" d="M252.366,-215.871C242.909,-191.457 225.468,-146.426 214.316,-117.635"/>
<polygon fill="black" stroke="black" points="217.533,-116.25 210.658,-108.189 211.006,-118.778 217.533,-116.25"/>
</g>
<!-- mkk4&#45;&gt;jnk12 -->
<g id="edge124" class="edge"><title>mkk4&#45;&gt;jnk12</title>
<path fill="none" stroke="black" d="M236.251,-291.835C254.823,-282.654 278.189,-269.014 295,-252 357.144,-189.107 401.148,-91.9757 419.897,-45.519"/>
<polygon fill="black" stroke="black" points="423.182,-46.7308 423.614,-36.1448 416.675,-44.1509 423.182,-46.7308"/>
</g>
<!-- mkk4&#45;&gt;p38 -->
<g id="edge122" class="edge"><title>mkk4&#45;&gt;p38</title>
<path fill="none" stroke="black" d="M219.101,-287.697C225.391,-279.389 233.047,-269.277 239.965,-260.141"/>
<polygon fill="black" stroke="black" points="242.804,-262.19 246.05,-252.104 237.223,-257.964 242.804,-262.19"/>
</g>
<!-- mkk7&#45;&gt;jnk12 -->
<g id="edge126" class="edge"><title>mkk7&#45;&gt;jnk12</title>
<path fill="none" stroke="black" d="M436.583,-287.966C435.416,-240.291 432.109,-105.185 430.676,-46.63"/>
<polygon fill="black" stroke="black" points="434.167,-46.2178 430.424,-36.3065 427.169,-46.3891 434.167,-46.2178"/>
</g>
<!-- cot&#45;&gt;ikk -->
<g id="edge76" class="edge"><title>cot&#45;&gt;ikk</title>
<path fill="none" stroke="black" d="M172.442,-359.747C162.068,-340.33 149.941,-308.79 166,-288 171.146,-281.338 274.755,-256.651 331.911,-243.452"/>
<polygon fill="black" stroke="black" points="332.713,-246.86 341.673,-241.206 331.142,-240.038 332.713,-246.86"/>
</g>
<!-- il1r&#45;&gt;traf6 -->
<g id="edge82" class="edge"><title>il1r&#45;&gt;traf6</title>
<path fill="none" stroke="black" d="M98.6483,-935.816C91.1939,-878.86 70.2255,-697.116 99,-648 139.173,-579.428 232.249,-545.627 284.566,-531.504"/>
<polygon fill="black" stroke="black" points="285.658,-534.837 294.459,-528.937 283.9,-528.061 285.658,-534.837"/>
</g>
<!-- mkk6&#45;&gt;p38 -->
<g id="edge128" class="edge"><title>mkk6&#45;&gt;p38</title>
<path fill="none" stroke="black" d="M278.573,-287.697C275.645,-279.813 272.113,-270.304 268.86,-261.546"/>
<polygon fill="black" stroke="black" points="272.116,-260.26 265.353,-252.104 265.554,-262.697 272.116,-260.26"/>
</g>
<!-- mkk3&#45;&gt;prak -->
<g id="edge112" class="edge"><title>mkk3&#45;&gt;prak</title>
<path fill="none" stroke="black" d="M485.719,-291.166C482.479,-289.977 479.198,-288.891 476,-288 421.293,-272.765 262.673,-292.632 223,-252 188.519,-216.686 192.362,-154.207 198.204,-118.35"/>
<polygon fill="black" stroke="black" points="201.716,-118.597 200.041,-108.136 194.826,-117.358 201.716,-118.597"/>
</g>
<!-- mkk3&#45;&gt;p38 -->
<g id="edge114" class="edge"><title>mkk3&#45;&gt;p38</title>
<path fill="none" stroke="black" d="M485.621,-291.487C482.4,-290.236 479.151,-289.047 476,-288 458.988,-282.349 353.35,-257.213 295.983,-243.686"/>
<polygon fill="black" stroke="black" points="296.737,-240.268 286.201,-241.382 295.132,-247.082 296.737,-240.268"/>
</g>
<!-- mek12&#45;&gt;erk12 -->
<g id="edge108" class="edge"><title>mek12&#45;&gt;erk12</title>
<path fill="none" stroke="black" d="M107.708,-215.697C109.361,-207.983 111.347,-198.712 113.19,-190.112"/>
<polygon fill="black" stroke="black" points="116.662,-190.616 115.335,-180.104 109.817,-189.149 116.662,-190.616"/>
</g>
</g>
</svg>
